solid OpenSCAD_Model
  facet normal -1 -0 -0
    outer loop
      vertex -76 -63.5 -3.5
      vertex -76 -63.5 3.5
      vertex -76 63.5 -3.5
    endloop
  endfacet
  facet normal -1 0 0
    outer loop
      vertex -76 63.5 -3.5
      vertex -76 -63.5 3.5
      vertex -76 63.5 3.5
    endloop
  endfacet
  facet normal 0 -1 0
    outer loop
      vertex -76 -63.5 3.5
      vertex -76 -63.5 -3.5
      vertex 76 -63.5 -3.5
    endloop
  endfacet
  facet normal 0 -1 0
    outer loop
      vertex 76 -63.5 3.5
      vertex -76 -63.5 3.5
      vertex 76 -63.5 -3.5
    endloop
  endfacet
  facet normal -0 -0 -1
    outer loop
      vertex -76 -63.5 -3.5
      vertex -76 63.5 -3.5
      vertex 76 -63.5 -3.5
    endloop
  endfacet
  facet normal 0 0 -1
    outer loop
      vertex 76 -63.5 -3.5
      vertex -76 63.5 -3.5
      vertex 76 63.5 -3.5
    endloop
  endfacet
  facet normal 0 1 0
    outer loop
      vertex -76 63.5 -3.5
      vertex -76 63.5 3.5
      vertex 76 63.5 -3.5
    endloop
  endfacet
  facet normal 0 1 0
    outer loop
      vertex 76 63.5 -3.5
      vertex -76 63.5 3.5
      vertex 76 63.5 3.5
    endloop
  endfacet
  facet normal 0 -0 1
    outer loop
      vertex -66.753 -57.5637 3.5
      vertex -76 -63.5 3.5
      vertex 76 -63.5 3.5
    endloop
  endfacet
  facet normal 0 -0 1
    outer loop
      vertex -76 63.5 3.5
      vertex -76 -63.5 3.5
      vertex -69.8019 -56.8678 3.5
    endloop
  endfacet
  facet normal 0 -0 1
    outer loop
      vertex -66 -56 3.5
      vertex -66.753 -57.5637 3.5
      vertex 76 -63.5 3.5
    endloop
  endfacet
  facet normal 0 0 1
    outer loop
      vertex -76 63.5 3.5
      vertex -69.8019 -56.8678 3.5
      vertex -69.8019 -55.1322 3.5
    endloop
  endfacet
  facet normal -0 -0 1
    outer loop
      vertex 68.555 -57.9499 3.5
      vertex -68.445 -54.0501 3.5
      vertex 76 -63.5 3.5
    endloop
  endfacet
  facet normal 0 0 1
    outer loop
      vertex -76 63.5 3.5
      vertex -69.8019 -55.1322 3.5
      vertex -68.445 -54.0501 3.5
    endloop
  endfacet
  facet normal 0 0 1
    outer loop
      vertex -68.445 -54.0501 3.5
      vertex -66.753 -54.4363 3.5
      vertex 76 -63.5 3.5
    endloop
  endfacet
  facet normal 0 -0 1
    outer loop
      vertex -68.445 -57.9499 3.5
      vertex -76 -63.5 3.5
      vertex -66.753 -57.5637 3.5
    endloop
  endfacet
  facet normal 0 -0 1
    outer loop
      vertex -69.8019 -56.8678 3.5
      vertex -76 -63.5 3.5
      vertex -68.445 -57.9499 3.5
    endloop
  endfacet
  facet normal 0 0 1
    outer loop
      vertex -76 63.5 3.5
      vertex -68.445 -54.0501 3.5
      vertex -69.8019 55.1322 3.5
    endloop
  endfacet
  facet normal 0 0 1
    outer loop
      vertex 67.1981 -56.8678 3.5
      vertex -68.445 54.0501 3.5
      vertex -69.8019 55.1322 3.5
    endloop
  endfacet
  facet normal 0 0 1
    outer loop
      vertex -76 63.5 3.5
      vertex -69.8019 55.1322 3.5
      vertex -69.8019 56.8678 3.5
    endloop
  endfacet
  facet normal 0 0 1
    outer loop
      vertex 76 63.5 3.5
      vertex -76 63.5 3.5
      vertex -68.445 57.9499 3.5
    endloop
  endfacet
  facet normal 0 0 1
    outer loop
      vertex 76 63.5 3.5
      vertex -68.445 57.9499 3.5
      vertex -66.753 57.5637 3.5
    endloop
  endfacet
  facet normal 0 -0 1
    outer loop
      vertex 71 -56 3.5
      vertex 70.247 -57.5637 3.5
      vertex 76 -63.5 3.5
    endloop
  endfacet
  facet normal 0 -0 1
    outer loop
      vertex 70.247 -57.5637 3.5
      vertex 68.555 -57.9499 3.5
      vertex 76 -63.5 3.5
    endloop
  endfacet
  facet normal 0 0 1
    outer loop
      vertex 67.1981 -56.8678 3.5
      vertex -66.753 54.4363 3.5
      vertex -68.445 54.0501 3.5
    endloop
  endfacet
  facet normal 0 0 1
    outer loop
      vertex -69.8019 55.1322 3.5
      vertex -68.445 -54.0501 3.5
      vertex 67.1981 -56.8678 3.5
    endloop
  endfacet
  facet normal 0 0 1
    outer loop
      vertex 68.555 57.9499 3.5
      vertex 70.247 57.5637 3.5
      vertex 76 63.5 3.5
    endloop
  endfacet
  facet normal -0 0 1
    outer loop
      vertex 67.1981 55.1322 3.5
      vertex -66.753 57.5637 3.5
      vertex 67.1981 -55.1322 3.5
    endloop
  endfacet
  facet normal 0 0 1
    outer loop
      vertex 76 63.5 3.5
      vertex 67.1981 -55.1322 3.5
      vertex 68.555 -54.0501 3.5
    endloop
  endfacet
  facet normal 0 0 1
    outer loop
      vertex 76 63.5 3.5
      vertex 70.247 -54.4363 3.5
      vertex 76 -63.5 3.5
    endloop
  endfacet
  facet normal 0 0 1
    outer loop
      vertex 76 63.5 3.5
      vertex 68.555 -54.0501 3.5
      vertex 70.247 -54.4363 3.5
    endloop
  endfacet
  facet normal 0 0 1
    outer loop
      vertex 70.247 -54.4363 3.5
      vertex 71 -56 3.5
      vertex 76 -63.5 3.5
    endloop
  endfacet
  facet normal -0 -0 1
    outer loop
      vertex 67.1981 -56.8678 3.5
      vertex -68.445 -54.0501 3.5
      vertex 68.555 -57.9499 3.5
    endloop
  endfacet
  facet normal -0 0 1
    outer loop
      vertex 68.555 54.0501 3.5
      vertex 67.1981 55.1322 3.5
      vertex 67.1981 -55.1322 3.5
    endloop
  endfacet
  facet normal -0 0 1
    outer loop
      vertex 67.1981 56.8678 3.5
      vertex -66.753 57.5637 3.5
      vertex 67.1981 55.1322 3.5
    endloop
  endfacet
  facet normal 0 0 1
    outer loop
      vertex 70.247 54.4363 3.5
      vertex 68.555 54.0501 3.5
      vertex 67.1981 -55.1322 3.5
    endloop
  endfacet
  facet normal 0 0 1
    outer loop
      vertex 68.555 57.9499 3.5
      vertex -66.753 57.5637 3.5
      vertex 67.1981 56.8678 3.5
    endloop
  endfacet
  facet normal 0 0 1
    outer loop
      vertex 76 63.5 3.5
      vertex -66.753 57.5637 3.5
      vertex 68.555 57.9499 3.5
    endloop
  endfacet
  facet normal 0 0 1
    outer loop
      vertex 76 63.5 3.5
      vertex 71 56 3.5
      vertex 67.1981 -55.1322 3.5
    endloop
  endfacet
  facet normal 0 0 1
    outer loop
      vertex 76 63.5 3.5
      vertex 70.247 57.5637 3.5
      vertex 71 56 3.5
    endloop
  endfacet
  facet normal 0 0 1
    outer loop
      vertex 71 56 3.5
      vertex 70.247 54.4363 3.5
      vertex 67.1981 -55.1322 3.5
    endloop
  endfacet
  facet normal 0 0 1
    outer loop
      vertex -66.753 -54.4363 3.5
      vertex -66 -56 3.5
      vertex 76 -63.5 3.5
    endloop
  endfacet
  facet normal 0 0 1
    outer loop
      vertex -69.8019 56.8678 3.5
      vertex -68.445 57.9499 3.5
      vertex -76 63.5 3.5
    endloop
  endfacet
  facet normal 0 0 1
    outer loop
      vertex 67.1981 -56.8678 3.5
      vertex -66 56 3.5
      vertex -66.753 54.4363 3.5
    endloop
  endfacet
  facet normal 0 0 1
    outer loop
      vertex 67.1981 -56.8678 3.5
      vertex -66.753 57.5637 3.5
      vertex -66 56 3.5
    endloop
  endfacet
  facet normal 0 0 1
    outer loop
      vertex 67.1981 -56.8678 3.5
      vertex 67.1981 -55.1322 3.5
      vertex -66.753 57.5637 3.5
    endloop
  endfacet
  facet normal 1 0 -0
    outer loop
      vertex 76 -63.5 3.5
      vertex 76 -63.5 -3.5
      vertex 76 63.5 -3.5
    endloop
  endfacet
  facet normal 1 0 0
    outer loop
      vertex 76 63.5 3.5
      vertex 76 -63.5 3.5
      vertex 76 63.5 -3.5
    endloop
  endfacet
  facet normal -0.62349 -0.781831 0
    outer loop
      vertex -69.8019 -56.8678 18
      vertex -69.8019 -56.8678 3.5
      vertex -68.445 -57.9499 3.5
    endloop
  endfacet
  facet normal -0.62349 -0.781831 0
    outer loop
      vertex -68.445 -57.9499 18
      vertex -69.8019 -56.8678 18
      vertex -68.445 -57.9499 3.5
    endloop
  endfacet
  facet normal -1 -0 -0
    outer loop
      vertex -69.8019 -56.8678 3.5
      vertex -69.8019 -56.8678 18
      vertex -69.8019 -55.1322 3.5
    endloop
  endfacet
  facet normal -1 0 0
    outer loop
      vertex -69.8019 -55.1322 3.5
      vertex -69.8019 -56.8678 18
      vertex -69.8019 -55.1322 18
    endloop
  endfacet
  facet normal 0.222521 -0.974928 0
    outer loop
      vertex -68.445 -57.9499 18
      vertex -68.445 -57.9499 3.5
      vertex -66.753 -57.5637 3.5
    endloop
  endfacet
  facet normal 0.222521 -0.974928 0
    outer loop
      vertex -66.753 -57.5637 18
      vertex -68.445 -57.9499 18
      vertex -66.753 -57.5637 3.5
    endloop
  endfacet
  facet normal 0.900969 -0.433884 0
    outer loop
      vertex -66.753 -57.5637 18
      vertex -66.753 -57.5637 3.5
      vertex -66 -56 3.5
    endloop
  endfacet
  facet normal 0.900969 -0.433884 0
    outer loop
      vertex -66 -56 18
      vertex -66.753 -57.5637 18
      vertex -66 -56 3.5
    endloop
  endfacet
  facet normal 0.900969 0.433884 0
    outer loop
      vertex -66 -56 3.5
      vertex -66.753 -54.4363 3.5
      vertex -66.753 -54.4363 18
    endloop
  endfacet
  facet normal 0.900969 0.433884 -0
    outer loop
      vertex -66 -56 18
      vertex -66 -56 3.5
      vertex -66.753 -54.4363 18
    endloop
  endfacet
  facet normal 0.222521 0.974928 0
    outer loop
      vertex -68.445 -54.0501 3.5
      vertex -68.445 -54.0501 18
      vertex -66.753 -54.4363 3.5
    endloop
  endfacet
  facet normal 0.222521 0.974928 0
    outer loop
      vertex -66.753 -54.4363 3.5
      vertex -68.445 -54.0501 18
      vertex -66.753 -54.4363 18
    endloop
  endfacet
  facet normal -0.62349 0.781831 0
    outer loop
      vertex -69.8019 -55.1322 3.5
      vertex -69.8019 -55.1322 18
      vertex -68.445 -54.0501 3.5
    endloop
  endfacet
  facet normal -0.62349 0.781831 0
    outer loop
      vertex -68.445 -54.0501 3.5
      vertex -69.8019 -55.1322 18
      vertex -68.445 -54.0501 18
    endloop
  endfacet
  facet normal -1 -0 -0
    outer loop
      vertex -69.8019 55.1322 3.5
      vertex -69.8019 55.1322 18
      vertex -69.8019 56.8678 3.5
    endloop
  endfacet
  facet normal -1 0 0
    outer loop
      vertex -69.8019 56.8678 3.5
      vertex -69.8019 55.1322 18
      vertex -69.8019 56.8678 18
    endloop
  endfacet
  facet normal -0.62349 -0.781831 0
    outer loop
      vertex -69.8019 55.1322 18
      vertex -69.8019 55.1322 3.5
      vertex -68.445 54.0501 3.5
    endloop
  endfacet
  facet normal -0.62349 -0.781831 0
    outer loop
      vertex -68.445 54.0501 18
      vertex -69.8019 55.1322 18
      vertex -68.445 54.0501 3.5
    endloop
  endfacet
  facet normal 0.222521 -0.974928 0
    outer loop
      vertex -68.445 54.0501 18
      vertex -68.445 54.0501 3.5
      vertex -66.753 54.4363 3.5
    endloop
  endfacet
  facet normal 0.222521 -0.974928 0
    outer loop
      vertex -66.753 54.4363 18
      vertex -68.445 54.0501 18
      vertex -66.753 54.4363 3.5
    endloop
  endfacet
  facet normal 0.900969 -0.433884 0
    outer loop
      vertex -66.753 54.4363 18
      vertex -66.753 54.4363 3.5
      vertex -66 56 3.5
    endloop
  endfacet
  facet normal 0.900969 -0.433884 0
    outer loop
      vertex -66 56 18
      vertex -66.753 54.4363 18
      vertex -66 56 3.5
    endloop
  endfacet
  facet normal 0.900969 0.433884 0
    outer loop
      vertex -66 56 3.5
      vertex -66.753 57.5637 3.5
      vertex -66.753 57.5637 18
    endloop
  endfacet
  facet normal 0.900969 0.433884 -0
    outer loop
      vertex -66 56 18
      vertex -66 56 3.5
      vertex -66.753 57.5637 18
    endloop
  endfacet
  facet normal 0.222521 0.974928 0
    outer loop
      vertex -68.445 57.9499 3.5
      vertex -68.445 57.9499 18
      vertex -66.753 57.5637 3.5
    endloop
  endfacet
  facet normal 0.222521 0.974928 0
    outer loop
      vertex -66.753 57.5637 3.5
      vertex -68.445 57.9499 18
      vertex -66.753 57.5637 18
    endloop
  endfacet
  facet normal -0.62349 0.781831 0
    outer loop
      vertex -69.8019 56.8678 3.5
      vertex -69.8019 56.8678 18
      vertex -68.445 57.9499 3.5
    endloop
  endfacet
  facet normal -0.62349 0.781831 0
    outer loop
      vertex -68.445 57.9499 3.5
      vertex -69.8019 56.8678 18
      vertex -68.445 57.9499 18
    endloop
  endfacet
  facet normal -0.62349 -0.781831 0
    outer loop
      vertex 67.1981 -56.8678 18
      vertex 67.1981 -56.8678 3.5
      vertex 68.555 -57.9499 3.5
    endloop
  endfacet
  facet normal -0.62349 -0.781831 0
    outer loop
      vertex 68.555 -57.9499 18
      vertex 67.1981 -56.8678 18
      vertex 68.555 -57.9499 3.5
    endloop
  endfacet
  facet normal -1 -0 -0
    outer loop
      vertex 67.1981 -56.8678 3.5
      vertex 67.1981 -56.8678 18
      vertex 67.1981 -55.1322 3.5
    endloop
  endfacet
  facet normal -1 0 0
    outer loop
      vertex 67.1981 -55.1322 3.5
      vertex 67.1981 -56.8678 18
      vertex 67.1981 -55.1322 18
    endloop
  endfacet
  facet normal 0.222521 -0.974928 0
    outer loop
      vertex 68.555 -57.9499 18
      vertex 68.555 -57.9499 3.5
      vertex 70.247 -57.5637 3.5
    endloop
  endfacet
  facet normal 0.222521 -0.974928 0
    outer loop
      vertex 70.247 -57.5637 18
      vertex 68.555 -57.9499 18
      vertex 70.247 -57.5637 3.5
    endloop
  endfacet
  facet normal 0.900969 -0.433884 0
    outer loop
      vertex 70.247 -57.5637 18
      vertex 70.247 -57.5637 3.5
      vertex 71 -56 3.5
    endloop
  endfacet
  facet normal 0.900969 -0.433884 0
    outer loop
      vertex 71 -56 18
      vertex 70.247 -57.5637 18
      vertex 71 -56 3.5
    endloop
  endfacet
  facet normal 0.900969 0.433884 0
    outer loop
      vertex 71 -56 3.5
      vertex 70.247 -54.4363 3.5
      vertex 70.247 -54.4363 18
    endloop
  endfacet
  facet normal 0.900969 0.433884 -0
    outer loop
      vertex 71 -56 18
      vertex 71 -56 3.5
      vertex 70.247 -54.4363 18
    endloop
  endfacet
  facet normal 0.222521 0.974928 0
    outer loop
      vertex 68.555 -54.0501 3.5
      vertex 68.555 -54.0501 18
      vertex 70.247 -54.4363 3.5
    endloop
  endfacet
  facet normal 0.222521 0.974928 0
    outer loop
      vertex 70.247 -54.4363 3.5
      vertex 68.555 -54.0501 18
      vertex 70.247 -54.4363 18
    endloop
  endfacet
  facet normal -0.62349 0.781831 0
    outer loop
      vertex 67.1981 -55.1322 3.5
      vertex 67.1981 -55.1322 18
      vertex 68.555 -54.0501 3.5
    endloop
  endfacet
  facet normal -0.62349 0.781831 0
    outer loop
      vertex 68.555 -54.0501 3.5
      vertex 67.1981 -55.1322 18
      vertex 68.555 -54.0501 18
    endloop
  endfacet
  facet normal -1 -0 -0
    outer loop
      vertex 67.1981 55.1322 3.5
      vertex 67.1981 55.1322 18
      vertex 67.1981 56.8678 3.5
    endloop
  endfacet
  facet normal -1 0 0
    outer loop
      vertex 67.1981 56.8678 3.5
      vertex 67.1981 55.1322 18
      vertex 67.1981 56.8678 18
    endloop
  endfacet
  facet normal -0.62349 -0.781831 0
    outer loop
      vertex 67.1981 55.1322 18
      vertex 67.1981 55.1322 3.5
      vertex 68.555 54.0501 3.5
    endloop
  endfacet
  facet normal -0.62349 -0.781831 0
    outer loop
      vertex 68.555 54.0501 18
      vertex 67.1981 55.1322 18
      vertex 68.555 54.0501 3.5
    endloop
  endfacet
  facet normal 0.222521 -0.974928 0
    outer loop
      vertex 68.555 54.0501 18
      vertex 68.555 54.0501 3.5
      vertex 70.247 54.4363 3.5
    endloop
  endfacet
  facet normal 0.222521 -0.974928 0
    outer loop
      vertex 70.247 54.4363 18
      vertex 68.555 54.0501 18
      vertex 70.247 54.4363 3.5
    endloop
  endfacet
  facet normal 0.900969 -0.433884 0
    outer loop
      vertex 70.247 54.4363 18
      vertex 70.247 54.4363 3.5
      vertex 71 56 3.5
    endloop
  endfacet
  facet normal 0.900969 -0.433884 0
    outer loop
      vertex 71 56 18
      vertex 70.247 54.4363 18
      vertex 71 56 3.5
    endloop
  endfacet
  facet normal 0.900969 0.433884 0
    outer loop
      vertex 71 56 3.5
      vertex 70.247 57.5637 3.5
      vertex 70.247 57.5637 18
    endloop
  endfacet
  facet normal 0.900969 0.433884 -0
    outer loop
      vertex 71 56 18
      vertex 71 56 3.5
      vertex 70.247 57.5637 18
    endloop
  endfacet
  facet normal 0.222521 0.974928 0
    outer loop
      vertex 68.555 57.9499 3.5
      vertex 68.555 57.9499 18
      vertex 70.247 57.5637 3.5
    endloop
  endfacet
  facet normal 0.222521 0.974928 0
    outer loop
      vertex 70.247 57.5637 3.5
      vertex 68.555 57.9499 18
      vertex 70.247 57.5637 18
    endloop
  endfacet
  facet normal -0.62349 0.781831 0
    outer loop
      vertex 67.1981 56.8678 3.5
      vertex 67.1981 56.8678 18
      vertex 68.555 57.9499 3.5
    endloop
  endfacet
  facet normal -0.62349 0.781831 0
    outer loop
      vertex 68.555 57.9499 3.5
      vertex 67.1981 56.8678 18
      vertex 68.555 57.9499 18
    endloop
  endfacet
  facet normal 0 -0 1
    outer loop
      vertex -69.8019 -55.1322 18
      vertex -69.8019 -56.8678 18
      vertex -68.445 -57.9499 18
    endloop
  endfacet
  facet normal -0 0 1
    outer loop
      vertex -66 -56 18
      vertex -69.8019 -55.1322 18
      vertex -66.753 -57.5637 18
    endloop
  endfacet
  facet normal -0 0 1
    outer loop
      vertex -66.753 -57.5637 18
      vertex -69.8019 -55.1322 18
      vertex -68.445 -57.9499 18
    endloop
  endfacet
  facet normal 0 -0 1
    outer loop
      vertex -66.753 -54.4363 18
      vertex -69.8019 -55.1322 18
      vertex -66 -56 18
    endloop
  endfacet
  facet normal 0 -0 1
    outer loop
      vertex -68.445 -54.0501 18
      vertex -69.8019 -55.1322 18
      vertex -66.753 -54.4363 18
    endloop
  endfacet
  facet normal 0 -0 1
    outer loop
      vertex -69.8019 56.8678 18
      vertex -69.8019 55.1322 18
      vertex -68.445 54.0501 18
    endloop
  endfacet
  facet normal -0 0 1
    outer loop
      vertex -66 56 18
      vertex -69.8019 56.8678 18
      vertex -66.753 54.4363 18
    endloop
  endfacet
  facet normal -0 0 1
    outer loop
      vertex -66.753 54.4363 18
      vertex -69.8019 56.8678 18
      vertex -68.445 54.0501 18
    endloop
  endfacet
  facet normal 0 -0 1
    outer loop
      vertex -66.753 57.5637 18
      vertex -69.8019 56.8678 18
      vertex -66 56 18
    endloop
  endfacet
  facet normal 0 -0 1
    outer loop
      vertex -68.445 57.9499 18
      vertex -69.8019 56.8678 18
      vertex -66.753 57.5637 18
    endloop
  endfacet
  facet normal 0 -0 1
    outer loop
      vertex 67.1981 -55.1322 18
      vertex 67.1981 -56.8678 18
      vertex 68.555 -57.9499 18
    endloop
  endfacet
  facet normal -0 0 1
    outer loop
      vertex 71 -56 18
      vertex 67.1981 -55.1322 18
      vertex 70.247 -57.5637 18
    endloop
  endfacet
  facet normal -0 0 1
    outer loop
      vertex 70.247 -57.5637 18
      vertex 67.1981 -55.1322 18
      vertex 68.555 -57.9499 18
    endloop
  endfacet
  facet normal 0 -0 1
    outer loop
      vertex 70.247 -54.4363 18
      vertex 67.1981 -55.1322 18
      vertex 71 -56 18
    endloop
  endfacet
  facet normal 0 -0 1
    outer loop
      vertex 68.555 -54.0501 18
      vertex 67.1981 -55.1322 18
      vertex 70.247 -54.4363 18
    endloop
  endfacet
  facet normal 0 -0 1
    outer loop
      vertex 67.1981 56.8678 18
      vertex 67.1981 55.1322 18
      vertex 68.555 54.0501 18
    endloop
  endfacet
  facet normal -0 0 1
    outer loop
      vertex 71 56 18
      vertex 67.1981 56.8678 18
      vertex 70.247 54.4363 18
    endloop
  endfacet
  facet normal -0 0 1
    outer loop
      vertex 70.247 54.4363 18
      vertex 67.1981 56.8678 18
      vertex 68.555 54.0501 18
    endloop
  endfacet
  facet normal 0 -0 1
    outer loop
      vertex 70.247 57.5637 18
      vertex 67.1981 56.8678 18
      vertex 71 56 18
    endloop
  endfacet
  facet normal 0 -0 1
    outer loop
      vertex 68.555 57.9499 18
      vertex 67.1981 56.8678 18
      vertex 70.247 57.5637 18
    endloop
  endfacet
endsolid OpenSCAD_Model
