solid OpenSCAD_Model
  facet normal -1 -0 -0
    outer loop
      vertex -76 -63.5 -30
      vertex -76 -63.5 30
      vertex -76 63.5 -30
    endloop
  endfacet
  facet normal -1 0 0
    outer loop
      vertex -76 63.5 -30
      vertex -76 -63.5 30
      vertex -76 63.5 30
    endloop
  endfacet
  facet normal 0 -1 0
    outer loop
      vertex -76 -63.5 30
      vertex -76 -63.5 -30
      vertex 76 -63.5 -30
    endloop
  endfacet
  facet normal 0 -1 0
    outer loop
      vertex 76 -63.5 30
      vertex -76 -63.5 30
      vertex 76 -63.5 -30
    endloop
  endfacet
  facet normal 0 -0 -1
    outer loop
      vertex -9.07295 22.8532 -30
      vertex -76 63.5 -30
      vertex 76 63.5 -30
    endloop
  endfacet
  facet normal 0 -0 -1
    outer loop
      vertex -76 -63.5 -30
      vertex -76 63.5 -30
      vertex -53.8838 20.9573 -30
    endloop
  endfacet
  facet normal 0 0 -1
    outer loop
      vertex -76 -63.5 -30
      vertex -53.8838 20.9573 -30
      vertex -53.8838 19.0427 -30
    endloop
  endfacet
  facet normal 0 0 -1
    outer loop
      vertex -76 -63.5 -30
      vertex -53.8838 19.0427 -30
      vertex -52.994 17.3475 -30
    endloop
  endfacet
  facet normal 0 0 -1
    outer loop
      vertex -76 -63.5 -30
      vertex -52.994 17.3475 -30
      vertex -51.4184 16.2599 -30
    endloop
  endfacet
  facet normal -0 -0 -1
    outer loop
      vertex -26.4582 -23.1411 -30
      vertex -51.4184 16.2599 -30
      vertex 76 -63.5 -30
    endloop
  endfacet
  facet normal 0 0 -1
    outer loop
      vertex -47.7277 16.7081 -30
      vertex 76 -63.5 -30
      vertex -49.5179 16.0292 -30
    endloop
  endfacet
  facet normal 0 0 -1
    outer loop
      vertex -46.4582 18.1411 -30
      vertex 76 -63.5 -30
      vertex -47.7277 16.7081 -30
    endloop
  endfacet
  facet normal 0 0 -1
    outer loop
      vertex -27.7277 -28.2919 -30
      vertex 76 -63.5 -30
      vertex -29.5179 -28.9708 -30
    endloop
  endfacet
  facet normal -0 -0 -1
    outer loop
      vertex -49.5179 23.9708 -30
      vertex -76 63.5 -30
      vertex -47.7277 23.2919 -30
    endloop
  endfacet
  facet normal 0 -0 -1
    outer loop
      vertex -51.4184 23.7401 -30
      vertex -76 63.5 -30
      vertex -49.5179 23.9708 -30
    endloop
  endfacet
  facet normal -0 0 -1
    outer loop
      vertex -46.4582 18.1411 -30
      vertex -46 20 -30
      vertex 76 -63.5 -30
    endloop
  endfacet
  facet normal -0 -0 -1
    outer loop
      vertex -47.7277 23.2919 -30
      vertex -76 63.5 -30
      vertex -46.4582 21.8589 -30
    endloop
  endfacet
  facet normal -0 -0 -1
    outer loop
      vertex -46 20 -30
      vertex -46.4582 21.8589 -30
      vertex 76 -63.5 -30
    endloop
  endfacet
  facet normal 0 -0 -1
    outer loop
      vertex -52.994 22.6525 -30
      vertex -76 63.5 -30
      vertex -51.4184 23.7401 -30
    endloop
  endfacet
  facet normal 0 -0 -1
    outer loop
      vertex -53.8838 20.9573 -30
      vertex -76 63.5 -30
      vertex -52.994 22.6525 -30
    endloop
  endfacet
  facet normal 0 0 -1
    outer loop
      vertex -76 -63.5 -30
      vertex -51.4184 16.2599 -30
      vertex -33.8838 -24.0427 -30
    endloop
  endfacet
  facet normal 0 0 -1
    outer loop
      vertex -76 -63.5 -30
      vertex -33.8838 -24.0427 -30
      vertex -33.8838 -25.9573 -30
    endloop
  endfacet
  facet normal 0 0 -1
    outer loop
      vertex -76 -63.5 -30
      vertex -33.8838 -25.9573 -30
      vertex -32.994 -27.6525 -30
    endloop
  endfacet
  facet normal 0 0 -1
    outer loop
      vertex -76 -63.5 -30
      vertex -32.994 -27.6525 -30
      vertex -31.4184 -28.7401 -30
    endloop
  endfacet
  facet normal -0 0 -1
    outer loop
      vertex -76 -63.5 -30
      vertex -31.4184 -28.7401 -30
      vertex 76 -63.5 -30
    endloop
  endfacet
  facet normal 0 0 -1
    outer loop
      vertex -31.4184 -28.7401 -30
      vertex -29.5179 -28.9708 -30
      vertex 76 -63.5 -30
    endloop
  endfacet
  facet normal 0 0 -1
    outer loop
      vertex -26.4582 -26.8589 -30
      vertex 76 -63.5 -30
      vertex -27.7277 -28.2919 -30
    endloop
  endfacet
  facet normal 0 0 -1
    outer loop
      vertex -26 -25 -30
      vertex 76 -63.5 -30
      vertex -26.4582 -26.8589 -30
    endloop
  endfacet
  facet normal -0 -0 -1
    outer loop
      vertex -29.5179 -21.0292 -30
      vertex -51.4184 16.2599 -30
      vertex -27.7277 -21.7081 -30
    endloop
  endfacet
  facet normal -0 -0 -1
    outer loop
      vertex -27.7277 -21.7081 -30
      vertex -51.4184 16.2599 -30
      vertex -26.4582 -23.1411 -30
    endloop
  endfacet
  facet normal -0 -0 -1
    outer loop
      vertex -26 -25 -30
      vertex -26.4582 -23.1411 -30
      vertex 76 -63.5 -30
    endloop
  endfacet
  facet normal 0 0 -1
    outer loop
      vertex -9.07295 17.1468 -30
      vertex 30.4821 -21.0292 -30
      vertex -10.9271 17.1468 -30
    endloop
  endfacet
  facet normal 0 -0 -1
    outer loop
      vertex -31.4184 -21.2599 -30
      vertex -51.4184 16.2599 -30
      vertex -29.5179 -21.0292 -30
    endloop
  endfacet
  facet normal 0 -0 -1
    outer loop
      vertex -32.994 -22.3475 -30
      vertex -51.4184 16.2599 -30
      vertex -31.4184 -21.2599 -30
    endloop
  endfacet
  facet normal 0 -0 -1
    outer loop
      vertex -33.8838 -24.0427 -30
      vertex -51.4184 16.2599 -30
      vertex -32.994 -22.3475 -30
    endloop
  endfacet
  facet normal 0 0 -1
    outer loop
      vertex -12.4271 18.2366 -30
      vertex -76 63.5 -30
      vertex -13 20 -30
    endloop
  endfacet
  facet normal -0 0 -1
    outer loop
      vertex -9.07295 22.8532 -30
      vertex 76 63.5 -30
      vertex -7.57295 21.7634 -30
    endloop
  endfacet
  facet normal 0 -0 -1
    outer loop
      vertex 9.07295 22.8532 -30
      vertex -9.07295 17.1468 -30
      vertex 76 63.5 -30
    endloop
  endfacet
  facet normal 0 0 -1
    outer loop
      vertex -9.07295 17.1468 -30
      vertex -7.57295 18.2366 -30
      vertex 76 63.5 -30
    endloop
  endfacet
  facet normal 0 0 -1
    outer loop
      vertex -7.57295 18.2366 -30
      vertex -7 20 -30
      vertex 76 63.5 -30
    endloop
  endfacet
  facet normal 0 -0 -1
    outer loop
      vertex -7 20 -30
      vertex -7.57295 21.7634 -30
      vertex 76 63.5 -30
    endloop
  endfacet
  facet normal -0 -0 -1
    outer loop
      vertex -10.9271 22.8532 -30
      vertex -76 63.5 -30
      vertex -9.07295 22.8532 -30
    endloop
  endfacet
  facet normal 0 0 -1
    outer loop
      vertex 10.9271 17.1468 -30
      vertex 76 -63.5 -30
      vertex 9.07295 17.1468 -30
    endloop
  endfacet
  facet normal 0 -0 -1
    outer loop
      vertex -12.4271 21.7634 -30
      vertex -76 63.5 -30
      vertex -10.9271 22.8532 -30
    endloop
  endfacet
  facet normal 0 -0 -1
    outer loop
      vertex -13 20 -30
      vertex -76 63.5 -30
      vertex -12.4271 21.7634 -30
    endloop
  endfacet
  facet normal 0 0 -1
    outer loop
      vertex 7.57295 18.2366 -30
      vertex -9.07295 17.1468 -30
      vertex 7 20 -30
    endloop
  endfacet
  facet normal 0 0 -1
    outer loop
      vertex 32.2723 -21.7081 -30
      vertex -9.07295 17.1468 -30
      vertex 7.57295 18.2366 -30
    endloop
  endfacet
  facet normal 0 0 -1
    outer loop
      vertex 76 -63.5 -30
      vertex 7.57295 18.2366 -30
      vertex 9.07295 17.1468 -30
    endloop
  endfacet
  facet normal -0 0 -1
    outer loop
      vertex 10.9271 22.8532 -30
      vertex 76 63.5 -30
      vertex 12.4271 21.7634 -30
    endloop
  endfacet
  facet normal 0 -0 -1
    outer loop
      vertex 47.006 22.6525 -30
      vertex 10.9271 17.1468 -30
      vertex 76 63.5 -30
    endloop
  endfacet
  facet normal 0 0 -1
    outer loop
      vertex 10.9271 17.1468 -30
      vertex 12.4271 18.2366 -30
      vertex 76 63.5 -30
    endloop
  endfacet
  facet normal 0 0 -1
    outer loop
      vertex 12.4271 18.2366 -30
      vertex 13 20 -30
      vertex 76 63.5 -30
    endloop
  endfacet
  facet normal 0 -0 -1
    outer loop
      vertex 13 20 -30
      vertex 12.4271 21.7634 -30
      vertex 76 63.5 -30
    endloop
  endfacet
  facet normal 0 -0 -1
    outer loop
      vertex 26.1162 -24.0427 -30
      vertex -76 63.5 -30
      vertex 27.006 -22.3475 -30
    endloop
  endfacet
  facet normal 0 -0 -1
    outer loop
      vertex 7.57295 21.7634 -30
      vertex -9.07295 17.1468 -30
      vertex 9.07295 22.8532 -30
    endloop
  endfacet
  facet normal 0 -0 -1
    outer loop
      vertex 27.006 -22.3475 -30
      vertex -12.4271 18.2366 -30
      vertex 28.5816 -21.2599 -30
    endloop
  endfacet
  facet normal 0 -0 -1
    outer loop
      vertex 10.9271 22.8532 -30
      vertex 9.07295 22.8532 -30
      vertex 76 63.5 -30
    endloop
  endfacet
  facet normal 0 -0 -1
    outer loop
      vertex 7 20 -30
      vertex -9.07295 17.1468 -30
      vertex 7.57295 21.7634 -30
    endloop
  endfacet
  facet normal -0 -0 -1
    outer loop
      vertex -46.4582 21.8589 -30
      vertex -76 63.5 -30
      vertex 26.1162 -24.0427 -30
    endloop
  endfacet
  facet normal 0 0 -1
    outer loop
      vertex -46.4582 21.8589 -30
      vertex 26.1162 -24.0427 -30
      vertex 26.1162 -25.9573 -30
    endloop
  endfacet
  facet normal 0 0 -1
    outer loop
      vertex -46.4582 21.8589 -30
      vertex 26.1162 -25.9573 -30
      vertex 27.006 -27.6525 -30
    endloop
  endfacet
  facet normal 0 0 -1
    outer loop
      vertex -46.4582 21.8589 -30
      vertex 27.006 -27.6525 -30
      vertex 76 -63.5 -30
    endloop
  endfacet
  facet normal 0 0 -1
    outer loop
      vertex 27.006 -27.6525 -30
      vertex 28.5816 -28.7401 -30
      vertex 76 -63.5 -30
    endloop
  endfacet
  facet normal 0 0 -1
    outer loop
      vertex 32.2723 -28.2919 -30
      vertex 76 -63.5 -30
      vertex 30.4821 -28.9708 -30
    endloop
  endfacet
  facet normal 0 0 -1
    outer loop
      vertex 30.4821 -28.9708 -30
      vertex 76 -63.5 -30
      vertex 28.5816 -28.7401 -30
    endloop
  endfacet
  facet normal 0 0 -1
    outer loop
      vertex 33.5418 -26.8589 -30
      vertex 76 -63.5 -30
      vertex 32.2723 -28.2919 -30
    endloop
  endfacet
  facet normal 0 0 -1
    outer loop
      vertex 48.5816 16.2599 -30
      vertex 76 -63.5 -30
      vertex 47.006 17.3475 -30
    endloop
  endfacet
  facet normal 0 0 -1
    outer loop
      vertex 76 -63.5 -30
      vertex 33.5418 -26.8589 -30
      vertex 34 -25 -30
    endloop
  endfacet
  facet normal -0 -0 -1
    outer loop
      vertex 30.4821 -21.0292 -30
      vertex -9.07295 17.1468 -30
      vertex 32.2723 -21.7081 -30
    endloop
  endfacet
  facet normal 0 0 -1
    outer loop
      vertex 76 -63.5 -30
      vertex 33.5418 -23.1411 -30
      vertex 7.57295 18.2366 -30
    endloop
  endfacet
  facet normal 0 -0 -1
    outer loop
      vertex 28.5816 -21.2599 -30
      vertex -10.9271 17.1468 -30
      vertex 30.4821 -21.0292 -30
    endloop
  endfacet
  facet normal 0 0 -1
    outer loop
      vertex 33.5418 -23.1411 -30
      vertex 32.2723 -21.7081 -30
      vertex 7.57295 18.2366 -30
    endloop
  endfacet
  facet normal 0 0 -1
    outer loop
      vertex 27.006 -22.3475 -30
      vertex -76 63.5 -30
      vertex -12.4271 18.2366 -30
    endloop
  endfacet
  facet normal 0 0 -1
    outer loop
      vertex 33.5418 -23.1411 -30
      vertex 76 -63.5 -30
      vertex 34 -25 -30
    endloop
  endfacet
  facet normal 0 0 -1
    outer loop
      vertex 46.1162 19.0427 -30
      vertex 10.9271 17.1468 -30
      vertex 46.1162 20.9573 -30
    endloop
  endfacet
  facet normal 0 0 -1
    outer loop
      vertex 76 -63.5 -30
      vertex 10.9271 17.1468 -30
      vertex 46.1162 19.0427 -30
    endloop
  endfacet
  facet normal 0 0 -1
    outer loop
      vertex 76 -63.5 -30
      vertex 46.1162 19.0427 -30
      vertex 47.006 17.3475 -30
    endloop
  endfacet
  facet normal -0 0 -1
    outer loop
      vertex 53.5418 21.8589 -30
      vertex 76 63.5 -30
      vertex 54 20 -30
    endloop
  endfacet
  facet normal 0 0 -1
    outer loop
      vertex 76 -63.5 -30
      vertex 48.5816 16.2599 -30
      vertex 50.4821 16.0292 -30
    endloop
  endfacet
  facet normal 0 0 -1
    outer loop
      vertex 76 -63.5 -30
      vertex 50.4821 16.0292 -30
      vertex 52.2723 16.7081 -30
    endloop
  endfacet
  facet normal 0 0 -1
    outer loop
      vertex 76 -63.5 -30
      vertex 52.2723 16.7081 -30
      vertex 53.5418 18.1411 -30
    endloop
  endfacet
  facet normal 0 0 -1
    outer loop
      vertex 76 -63.5 -30
      vertex 53.5418 18.1411 -30
      vertex 76 63.5 -30
    endloop
  endfacet
  facet normal 0 0 -1
    outer loop
      vertex 53.5418 18.1411 -30
      vertex 54 20 -30
      vertex 76 63.5 -30
    endloop
  endfacet
  facet normal -0 0 -1
    outer loop
      vertex 52.2723 23.2919 -30
      vertex 76 63.5 -30
      vertex 53.5418 21.8589 -30
    endloop
  endfacet
  facet normal 0 0 -1
    outer loop
      vertex 47.006 22.6525 -30
      vertex 76 63.5 -30
      vertex 48.5816 23.7401 -30
    endloop
  endfacet
  facet normal 0 -0 -1
    outer loop
      vertex 52.2723 23.2919 -30
      vertex 50.4821 23.9708 -30
      vertex 76 63.5 -30
    endloop
  endfacet
  facet normal 0 -0 -1
    outer loop
      vertex 50.4821 23.9708 -30
      vertex 48.5816 23.7401 -30
      vertex 76 63.5 -30
    endloop
  endfacet
  facet normal 0 -0 -1
    outer loop
      vertex 46.1162 20.9573 -30
      vertex 10.9271 17.1468 -30
      vertex 47.006 22.6525 -30
    endloop
  endfacet
  facet normal 0 0 -1
    outer loop
      vertex -49.5179 16.0292 -30
      vertex 76 -63.5 -30
      vertex -51.4184 16.2599 -30
    endloop
  endfacet
  facet normal 0 0 -1
    outer loop
      vertex 28.5816 -21.2599 -30
      vertex -12.4271 18.2366 -30
      vertex -10.9271 17.1468 -30
    endloop
  endfacet
  facet normal 0 1 0
    outer loop
      vertex -76 63.5 -30
      vertex -76 63.5 30
      vertex 76 63.5 -30
    endloop
  endfacet
  facet normal 0 1 0
    outer loop
      vertex 76 63.5 -30
      vertex -76 63.5 30
      vertex 76 63.5 30
    endloop
  endfacet
  facet normal 0 -0 1
    outer loop
      vertex -63 -60 30
      vertex -76 -63.5 30
      vertex 76 -63.5 30
    endloop
  endfacet
  facet normal 0 0 1
    outer loop
      vertex 63 50 30
      vertex 72.5 50 30
      vertex 68.5019 52.5356 30
    endloop
  endfacet
  facet normal 0 -0 1
    outer loop
      vertex -76 63.5 30
      vertex -76 -63.5 30
      vertex -72.5 -50 30
    endloop
  endfacet
  facet normal 0 0 1
    outer loop
      vertex -70.292 -53.3549 30
      vertex -68.4981 -52.5356 30
      vertex -72.5 -50 30
    endloop
  endfacet
  facet normal 0 0 1
    outer loop
      vertex -76 63.5 30
      vertex -72.5 -50 30
      vertex -72.5 50 30
    endloop
  endfacet
  facet normal 0 -0 1
    outer loop
      vertex -68.4981 52.5356 30
      vertex -72.5 50 30
      vertex -63 50 30
    endloop
  endfacet
  facet normal 0 0 1
    outer loop
      vertex 76 63.5 30
      vertex -76 63.5 30
      vertex -63 60 30
    endloop
  endfacet
  facet normal 0 0 1
    outer loop
      vertex 76 63.5 30
      vertex -63 60 30
      vertex 63 60 30
    endloop
  endfacet
  facet normal 0 0 1
    outer loop
      vertex 76 63.5 30
      vertex 72.5 50 30
      vertex 76 -63.5 30
    endloop
  endfacet
  facet normal 0 0 1
    outer loop
      vertex 72.5 56 30
      vertex 71.9444 54.1078 30
      vertex 72.5 50 30
    endloop
  endfacet
  facet normal 0 -0 1
    outer loop
      vertex 68.5019 -59.4644 30
      vertex 63 -60 30
      vertex 76 -63.5 30
    endloop
  endfacet
  facet normal 0 -0 1
    outer loop
      vertex -66.546 -59.1837 30
      vertex -76 -63.5 30
      vertex -63 -60 30
    endloop
  endfacet
  facet normal 0 0 1
    outer loop
      vertex -71.3582 56.9861 30
      vertex -70.292 58.6451 30
      vertex -76 63.5 30
    endloop
  endfacet
  facet normal 0 -0 1
    outer loop
      vertex -72.5 -50 30
      vertex -76 -63.5 30
      vertex -71.3582 -56.9861 30
    endloop
  endfacet
  facet normal 0 -0 1
    outer loop
      vertex -65.0556 54.1078 30
      vertex -66.546 52.8163 30
      vertex -63 50 30
    endloop
  endfacet
  facet normal 0 0 1
    outer loop
      vertex -72.5 -50 30
      vertex -71.3582 -56.9861 30
      vertex -71.3582 -55.0139 30
    endloop
  endfacet
  facet normal 0 -0 1
    outer loop
      vertex 71.9444 54.1078 30
      vertex 70.454 52.8163 30
      vertex 72.5 50 30
    endloop
  endfacet
  facet normal 0 0 1
    outer loop
      vertex -72.5 -50 30
      vertex -71.3582 -55.0139 30
      vertex -70.292 -53.3549 30
    endloop
  endfacet
  facet normal 0 0 1
    outer loop
      vertex -63 -60 30
      vertex -63 -50 30
      vertex -65.0556 -54.1078 30
    endloop
  endfacet
  facet normal 0 0 1
    outer loop
      vertex -65.0556 -54.1078 30
      vertex -63 -50 30
      vertex -66.546 -52.8163 30
    endloop
  endfacet
  facet normal 0 0 1
    outer loop
      vertex -66.546 -52.8163 30
      vertex -63 -50 30
      vertex -72.5 -50 30
    endloop
  endfacet
  facet normal 0 0 1
    outer loop
      vertex -64.5 -56 30
      vertex -63 -60 30
      vertex -65.0556 -54.1078 30
    endloop
  endfacet
  facet normal 0 -0 1
    outer loop
      vertex -64.5 -56 30
      vertex -65.0556 -57.8922 30
      vertex -63 -60 30
    endloop
  endfacet
  facet normal 0 -0 1
    outer loop
      vertex -66.546 52.8163 30
      vertex -68.4981 52.5356 30
      vertex -63 50 30
    endloop
  endfacet
  facet normal 0 -0 1
    outer loop
      vertex -68.4981 -59.4644 30
      vertex -76 -63.5 30
      vertex -66.546 -59.1837 30
    endloop
  endfacet
  facet normal 0 -0 1
    outer loop
      vertex -70.292 -58.6451 30
      vertex -76 -63.5 30
      vertex -68.4981 -59.4644 30
    endloop
  endfacet
  facet normal 0 -0 1
    outer loop
      vertex -71.3582 -56.9861 30
      vertex -76 -63.5 30
      vertex -70.292 -58.6451 30
    endloop
  endfacet
  facet normal 0 0 1
    outer loop
      vertex 65.6418 -55.0139 30
      vertex 66.708 -53.3549 30
      vertex 63 -50 30
    endloop
  endfacet
  facet normal 0 0 1
    outer loop
      vertex -76 63.5 30
      vertex -72.5 50 30
      vertex -71.3582 55.0139 30
    endloop
  endfacet
  facet normal 0 0 1
    outer loop
      vertex -70.292 58.6451 30
      vertex -68.4981 59.4644 30
      vertex -76 63.5 30
    endloop
  endfacet
  facet normal 0 0 1
    outer loop
      vertex -76 63.5 30
      vertex -71.3582 55.0139 30
      vertex -71.3582 56.9861 30
    endloop
  endfacet
  facet normal 0 0 1
    outer loop
      vertex 63 50 30
      vertex 66.708 53.3549 30
      vertex 65.6418 55.0139 30
    endloop
  endfacet
  facet normal -0 0 1
    outer loop
      vertex -63 60 30
      vertex -76 63.5 30
      vertex -68.4981 59.4644 30
    endloop
  endfacet
  facet normal 0 0 1
    outer loop
      vertex -63 60 30
      vertex -68.4981 59.4644 30
      vertex -66.546 59.1837 30
    endloop
  endfacet
  facet normal 0 0 1
    outer loop
      vertex 63 50 30
      vertex 65.6418 55.0139 30
      vertex 63 60 30
    endloop
  endfacet
  facet normal 0 0 1
    outer loop
      vertex 63 50 30
      vertex 68.5019 52.5356 30
      vertex 66.708 53.3549 30
    endloop
  endfacet
  facet normal 0 -0 1
    outer loop
      vertex 72.5 -56 30
      vertex 71.9444 -57.8922 30
      vertex 76 -63.5 30
    endloop
  endfacet
  facet normal 0 -0 1
    outer loop
      vertex 70.454 -59.1837 30
      vertex 68.5019 -59.4644 30
      vertex 76 -63.5 30
    endloop
  endfacet
  facet normal 0 -0 1
    outer loop
      vertex -70.292 53.3549 30
      vertex -72.5 50 30
      vertex -68.4981 52.5356 30
    endloop
  endfacet
  facet normal 0 -0 1
    outer loop
      vertex -71.3582 55.0139 30
      vertex -72.5 50 30
      vertex -70.292 53.3549 30
    endloop
  endfacet
  facet normal 0 0 1
    outer loop
      vertex -66.546 -52.8163 30
      vertex -72.5 -50 30
      vertex -68.4981 -52.5356 30
    endloop
  endfacet
  facet normal 0 0 1
    outer loop
      vertex 63 -50 30
      vertex 65.6418 -56.9861 30
      vertex 65.6418 -55.0139 30
    endloop
  endfacet
  facet normal 0 -0 1
    outer loop
      vertex 63 -50 30
      vertex 63 -60 30
      vertex 65.6418 -56.9861 30
    endloop
  endfacet
  facet normal 0 0 1
    outer loop
      vertex 65.6418 56.9861 30
      vertex 66.708 58.6451 30
      vertex 63 60 30
    endloop
  endfacet
  facet normal 0 0 1
    outer loop
      vertex 72.5 -50 30
      vertex 63 -50 30
      vertex 66.708 -53.3549 30
    endloop
  endfacet
  facet normal 0 0 1
    outer loop
      vertex 72.5 -50 30
      vertex 66.708 -53.3549 30
      vertex 68.5019 -52.5356 30
    endloop
  endfacet
  facet normal 0 -0 1
    outer loop
      vertex 71.9444 -57.8922 30
      vertex 70.454 -59.1837 30
      vertex 76 -63.5 30
    endloop
  endfacet
  facet normal 0 0 1
    outer loop
      vertex 72.5 -50 30
      vertex 68.5019 -52.5356 30
      vertex 70.454 -52.8163 30
    endloop
  endfacet
  facet normal 0 -0 1
    outer loop
      vertex 72.5 -50 30
      vertex 71.9444 -54.1078 30
      vertex 76 -63.5 30
    endloop
  endfacet
  facet normal 0 0 1
    outer loop
      vertex 72.5 -50 30
      vertex 70.454 -52.8163 30
      vertex 71.9444 -54.1078 30
    endloop
  endfacet
  facet normal 0 0 1
    outer loop
      vertex 71.9444 -54.1078 30
      vertex 72.5 -56 30
      vertex 76 -63.5 30
    endloop
  endfacet
  facet normal 0 -0 1
    outer loop
      vertex 63 -60 30
      vertex -63 -60 30
      vertex 76 -63.5 30
    endloop
  endfacet
  facet normal 0 -0 1
    outer loop
      vertex -65.0556 -57.8922 30
      vertex -66.546 -59.1837 30
      vertex -63 -60 30
    endloop
  endfacet
  facet normal 0 -0 1
    outer loop
      vertex 66.708 -58.6451 30
      vertex 63 -60 30
      vertex 68.5019 -59.4644 30
    endloop
  endfacet
  facet normal 0 -0 1
    outer loop
      vertex 65.6418 -56.9861 30
      vertex 63 -60 30
      vertex 66.708 -58.6451 30
    endloop
  endfacet
  facet normal -0 0 1
    outer loop
      vertex 65.6418 56.9861 30
      vertex 63 60 30
      vertex 65.6418 55.0139 30
    endloop
  endfacet
  facet normal 0 0 1
    outer loop
      vertex 76 63.5 30
      vertex 63 60 30
      vertex 66.708 58.6451 30
    endloop
  endfacet
  facet normal 0 -0 1
    outer loop
      vertex 70.454 52.8163 30
      vertex 68.5019 52.5356 30
      vertex 72.5 50 30
    endloop
  endfacet
  facet normal 0 0 1
    outer loop
      vertex 76 63.5 30
      vertex 66.708 58.6451 30
      vertex 68.5019 59.4644 30
    endloop
  endfacet
  facet normal 0 0 1
    outer loop
      vertex 76 63.5 30
      vertex 68.5019 59.4644 30
      vertex 70.454 59.1837 30
    endloop
  endfacet
  facet normal 0 0 1
    outer loop
      vertex 76 63.5 30
      vertex 70.454 59.1837 30
      vertex 71.9444 57.8922 30
    endloop
  endfacet
  facet normal 0 0 1
    outer loop
      vertex 76 63.5 30
      vertex 72.5 56 30
      vertex 72.5 50 30
    endloop
  endfacet
  facet normal 0 0 1
    outer loop
      vertex 76 63.5 30
      vertex 71.9444 57.8922 30
      vertex 72.5 56 30
    endloop
  endfacet
  facet normal 0 -0 1
    outer loop
      vertex 72.5 50 30
      vertex 72.5 -50 30
      vertex 76 -63.5 30
    endloop
  endfacet
  facet normal 0 0 1
    outer loop
      vertex -63 50 30
      vertex -64.5 56 30
      vertex -65.0556 54.1078 30
    endloop
  endfacet
  facet normal 0 0 1
    outer loop
      vertex -65.0556 57.8922 30
      vertex -63 60 30
      vertex -66.546 59.1837 30
    endloop
  endfacet
  facet normal 0 0 1
    outer loop
      vertex -64.5 56 30
      vertex -63 60 30
      vertex -65.0556 57.8922 30
    endloop
  endfacet
  facet normal 0 0 1
    outer loop
      vertex -63 50 30
      vertex -63 60 30
      vertex -64.5 56 30
    endloop
  endfacet
  facet normal 1 0 -0
    outer loop
      vertex 76 -63.5 30
      vertex 76 -63.5 -30
      vertex 76 63.5 -30
    endloop
  endfacet
  facet normal 1 0 0
    outer loop
      vertex 76 63.5 30
      vertex 76 -63.5 30
      vertex 76 63.5 -30
    endloop
  endfacet
  facet normal 1 0 0
    outer loop
      vertex -53.8838 20.9573 -30
      vertex -53.8838 20.9573 -24
      vertex -53.8838 19.0427 -24
    endloop
  endfacet
  facet normal 1 0 0
    outer loop
      vertex -53.8838 19.0427 -30
      vertex -53.8838 20.9573 -30
      vertex -53.8838 19.0427 -24
    endloop
  endfacet
  facet normal 0.885456 -0.464723 0
    outer loop
      vertex -52.994 22.6525 -30
      vertex -52.994 22.6525 -24
      vertex -53.8838 20.9573 -24
    endloop
  endfacet
  facet normal 0.885456 -0.464723 0
    outer loop
      vertex -53.8838 20.9573 -30
      vertex -52.994 22.6525 -30
      vertex -53.8838 20.9573 -24
    endloop
  endfacet
  facet normal 0.568065 -0.822984 0
    outer loop
      vertex -51.4184 23.7401 -30
      vertex -51.4184 23.7401 -24
      vertex -52.994 22.6525 -24
    endloop
  endfacet
  facet normal 0.568065 -0.822984 0
    outer loop
      vertex -52.994 22.6525 -30
      vertex -51.4184 23.7401 -30
      vertex -52.994 22.6525 -24
    endloop
  endfacet
  facet normal 0.120536 -0.992709 0
    outer loop
      vertex -49.5179 23.9708 -30
      vertex -49.5179 23.9708 -24
      vertex -51.4184 23.7401 -24
    endloop
  endfacet
  facet normal 0.120536 -0.992709 0
    outer loop
      vertex -51.4184 23.7401 -30
      vertex -49.5179 23.9708 -30
      vertex -51.4184 23.7401 -24
    endloop
  endfacet
  facet normal -0.354605 -0.935016 -0
    outer loop
      vertex -47.7277 23.2919 -30
      vertex -47.7277 23.2919 -24
      vertex -49.5179 23.9708 -24
    endloop
  endfacet
  facet normal -0.354605 -0.935016 -0
    outer loop
      vertex -49.5179 23.9708 -30
      vertex -47.7277 23.2919 -30
      vertex -49.5179 23.9708 -24
    endloop
  endfacet
  facet normal -0.748511 -0.663123 0
    outer loop
      vertex -46.4582 21.8589 -24
      vertex -47.7277 23.2919 -24
      vertex -46.4582 21.8589 -30
    endloop
  endfacet
  facet normal -0.748511 -0.663123 0
    outer loop
      vertex -46.4582 21.8589 -30
      vertex -47.7277 23.2919 -24
      vertex -47.7277 23.2919 -30
    endloop
  endfacet
  facet normal -0.970942 -0.239316 0
    outer loop
      vertex -46 20 -24
      vertex -46.4582 21.8589 -24
      vertex -46 20 -30
    endloop
  endfacet
  facet normal -0.970942 -0.239316 0
    outer loop
      vertex -46 20 -30
      vertex -46.4582 21.8589 -24
      vertex -46.4582 21.8589 -30
    endloop
  endfacet
  facet normal -0.970942 0.239316 0
    outer loop
      vertex -46 20 -24
      vertex -46 20 -30
      vertex -46.4582 18.1411 -24
    endloop
  endfacet
  facet normal -0.970942 0.239316 0
    outer loop
      vertex -46.4582 18.1411 -24
      vertex -46 20 -30
      vertex -46.4582 18.1411 -30
    endloop
  endfacet
  facet normal -0.748511 0.663123 0
    outer loop
      vertex -46.4582 18.1411 -24
      vertex -46.4582 18.1411 -30
      vertex -47.7277 16.7081 -24
    endloop
  endfacet
  facet normal -0.748511 0.663123 0
    outer loop
      vertex -47.7277 16.7081 -24
      vertex -46.4582 18.1411 -30
      vertex -47.7277 16.7081 -30
    endloop
  endfacet
  facet normal -0.354605 0.935016 0
    outer loop
      vertex -47.7277 16.7081 -24
      vertex -47.7277 16.7081 -30
      vertex -49.5179 16.0292 -24
    endloop
  endfacet
  facet normal -0.354605 0.935016 0
    outer loop
      vertex -49.5179 16.0292 -24
      vertex -47.7277 16.7081 -30
      vertex -49.5179 16.0292 -30
    endloop
  endfacet
  facet normal 0.120536 0.992709 -0
    outer loop
      vertex -49.5179 16.0292 -24
      vertex -49.5179 16.0292 -30
      vertex -51.4184 16.2599 -24
    endloop
  endfacet
  facet normal 0.120536 0.992709 -0
    outer loop
      vertex -51.4184 16.2599 -24
      vertex -49.5179 16.0292 -30
      vertex -51.4184 16.2599 -30
    endloop
  endfacet
  facet normal 0.568065 0.822984 -0
    outer loop
      vertex -51.4184 16.2599 -24
      vertex -51.4184 16.2599 -30
      vertex -52.994 17.3475 -24
    endloop
  endfacet
  facet normal 0.568065 0.822984 -0
    outer loop
      vertex -52.994 17.3475 -24
      vertex -51.4184 16.2599 -30
      vertex -52.994 17.3475 -30
    endloop
  endfacet
  facet normal 0.885456 0.464723 0
    outer loop
      vertex -53.8838 19.0427 -24
      vertex -52.994 17.3475 -24
      vertex -52.994 17.3475 -30
    endloop
  endfacet
  facet normal 0.885456 0.464723 0
    outer loop
      vertex -53.8838 19.0427 -30
      vertex -53.8838 19.0427 -24
      vertex -52.994 17.3475 -30
    endloop
  endfacet
  facet normal 1 0 0
    outer loop
      vertex -33.8838 -24.0427 -30
      vertex -33.8838 -24.0427 -24
      vertex -33.8838 -25.9573 -24
    endloop
  endfacet
  facet normal 1 0 0
    outer loop
      vertex -33.8838 -25.9573 -30
      vertex -33.8838 -24.0427 -30
      vertex -33.8838 -25.9573 -24
    endloop
  endfacet
  facet normal 0.885456 -0.464723 0
    outer loop
      vertex -32.994 -22.3475 -30
      vertex -32.994 -22.3475 -24
      vertex -33.8838 -24.0427 -24
    endloop
  endfacet
  facet normal 0.885456 -0.464723 0
    outer loop
      vertex -33.8838 -24.0427 -30
      vertex -32.994 -22.3475 -30
      vertex -33.8838 -24.0427 -24
    endloop
  endfacet
  facet normal 0.568065 -0.822984 0
    outer loop
      vertex -31.4184 -21.2599 -30
      vertex -31.4184 -21.2599 -24
      vertex -32.994 -22.3475 -24
    endloop
  endfacet
  facet normal 0.568065 -0.822984 0
    outer loop
      vertex -32.994 -22.3475 -30
      vertex -31.4184 -21.2599 -30
      vertex -32.994 -22.3475 -24
    endloop
  endfacet
  facet normal 0.120536 -0.992709 0
    outer loop
      vertex -29.5179 -21.0292 -30
      vertex -29.5179 -21.0292 -24
      vertex -31.4184 -21.2599 -24
    endloop
  endfacet
  facet normal 0.120536 -0.992709 0
    outer loop
      vertex -31.4184 -21.2599 -30
      vertex -29.5179 -21.0292 -30
      vertex -31.4184 -21.2599 -24
    endloop
  endfacet
  facet normal -0.354605 -0.935016 -0
    outer loop
      vertex -27.7277 -21.7081 -30
      vertex -27.7277 -21.7081 -24
      vertex -29.5179 -21.0292 -24
    endloop
  endfacet
  facet normal -0.354605 -0.935016 -0
    outer loop
      vertex -29.5179 -21.0292 -30
      vertex -27.7277 -21.7081 -30
      vertex -29.5179 -21.0292 -24
    endloop
  endfacet
  facet normal -0.748511 -0.663123 0
    outer loop
      vertex -26.4582 -23.1411 -24
      vertex -27.7277 -21.7081 -24
      vertex -26.4582 -23.1411 -30
    endloop
  endfacet
  facet normal -0.748511 -0.663123 0
    outer loop
      vertex -26.4582 -23.1411 -30
      vertex -27.7277 -21.7081 -24
      vertex -27.7277 -21.7081 -30
    endloop
  endfacet
  facet normal -0.970942 -0.239316 0
    outer loop
      vertex -26 -25 -24
      vertex -26.4582 -23.1411 -24
      vertex -26 -25 -30
    endloop
  endfacet
  facet normal -0.970942 -0.239316 0
    outer loop
      vertex -26 -25 -30
      vertex -26.4582 -23.1411 -24
      vertex -26.4582 -23.1411 -30
    endloop
  endfacet
  facet normal -0.970942 0.239316 0
    outer loop
      vertex -26 -25 -24
      vertex -26 -25 -30
      vertex -26.4582 -26.8589 -24
    endloop
  endfacet
  facet normal -0.970942 0.239316 0
    outer loop
      vertex -26.4582 -26.8589 -24
      vertex -26 -25 -30
      vertex -26.4582 -26.8589 -30
    endloop
  endfacet
  facet normal -0.748511 0.663123 0
    outer loop
      vertex -26.4582 -26.8589 -24
      vertex -26.4582 -26.8589 -30
      vertex -27.7277 -28.2919 -24
    endloop
  endfacet
  facet normal -0.748511 0.663123 0
    outer loop
      vertex -27.7277 -28.2919 -24
      vertex -26.4582 -26.8589 -30
      vertex -27.7277 -28.2919 -30
    endloop
  endfacet
  facet normal -0.354605 0.935016 0
    outer loop
      vertex -27.7277 -28.2919 -24
      vertex -27.7277 -28.2919 -30
      vertex -29.5179 -28.9708 -24
    endloop
  endfacet
  facet normal -0.354605 0.935016 0
    outer loop
      vertex -29.5179 -28.9708 -24
      vertex -27.7277 -28.2919 -30
      vertex -29.5179 -28.9708 -30
    endloop
  endfacet
  facet normal 0.120536 0.992709 -0
    outer loop
      vertex -29.5179 -28.9708 -24
      vertex -29.5179 -28.9708 -30
      vertex -31.4184 -28.7401 -24
    endloop
  endfacet
  facet normal 0.120536 0.992709 -0
    outer loop
      vertex -31.4184 -28.7401 -24
      vertex -29.5179 -28.9708 -30
      vertex -31.4184 -28.7401 -30
    endloop
  endfacet
  facet normal 0.568065 0.822984 -0
    outer loop
      vertex -31.4184 -28.7401 -24
      vertex -31.4184 -28.7401 -30
      vertex -32.994 -27.6525 -24
    endloop
  endfacet
  facet normal 0.568065 0.822984 -0
    outer loop
      vertex -32.994 -27.6525 -24
      vertex -31.4184 -28.7401 -30
      vertex -32.994 -27.6525 -30
    endloop
  endfacet
  facet normal 0.885456 0.464723 0
    outer loop
      vertex -33.8838 -25.9573 -24
      vertex -32.994 -27.6525 -24
      vertex -32.994 -27.6525 -30
    endloop
  endfacet
  facet normal 0.885456 0.464723 0
    outer loop
      vertex -33.8838 -25.9573 -30
      vertex -33.8838 -25.9573 -24
      vertex -32.994 -27.6525 -30
    endloop
  endfacet
  facet normal 0.951057 -0.309017 0
    outer loop
      vertex -12.4271 21.7634 -30
      vertex -12.4271 21.7634 -24
      vertex -13 20 -24
    endloop
  endfacet
  facet normal 0.951057 -0.309017 0
    outer loop
      vertex -13 20 -30
      vertex -12.4271 21.7634 -30
      vertex -13 20 -24
    endloop
  endfacet
  facet normal 0.951057 0.309017 0
    outer loop
      vertex -13 20 -24
      vertex -12.4271 18.2366 -24
      vertex -12.4271 18.2366 -30
    endloop
  endfacet
  facet normal 0.951057 0.309017 0
    outer loop
      vertex -13 20 -30
      vertex -13 20 -24
      vertex -12.4271 18.2366 -30
    endloop
  endfacet
  facet normal 0.587785 -0.809017 0
    outer loop
      vertex -10.9271 22.8532 -30
      vertex -10.9271 22.8532 -24
      vertex -12.4271 21.7634 -24
    endloop
  endfacet
  facet normal 0.587785 -0.809017 0
    outer loop
      vertex -12.4271 21.7634 -30
      vertex -10.9271 22.8532 -30
      vertex -12.4271 21.7634 -24
    endloop
  endfacet
  facet normal 0 -1 0
    outer loop
      vertex -9.07295 22.8532 -30
      vertex -9.07295 22.8532 -24
      vertex -10.9271 22.8532 -24
    endloop
  endfacet
  facet normal -0 -1 -0
    outer loop
      vertex -10.9271 22.8532 -30
      vertex -9.07295 22.8532 -30
      vertex -10.9271 22.8532 -24
    endloop
  endfacet
  facet normal -0.587785 -0.809017 -0
    outer loop
      vertex -7.57295 21.7634 -30
      vertex -7.57295 21.7634 -24
      vertex -9.07295 22.8532 -24
    endloop
  endfacet
  facet normal -0.587785 -0.809017 -0
    outer loop
      vertex -9.07295 22.8532 -30
      vertex -7.57295 21.7634 -30
      vertex -9.07295 22.8532 -24
    endloop
  endfacet
  facet normal -0.951057 -0.309017 0
    outer loop
      vertex -7 20 -24
      vertex -7.57295 21.7634 -24
      vertex -7 20 -30
    endloop
  endfacet
  facet normal -0.951057 -0.309017 0
    outer loop
      vertex -7 20 -30
      vertex -7.57295 21.7634 -24
      vertex -7.57295 21.7634 -30
    endloop
  endfacet
  facet normal -0.951057 0.309017 0
    outer loop
      vertex -7 20 -24
      vertex -7 20 -30
      vertex -7.57295 18.2366 -24
    endloop
  endfacet
  facet normal -0.951057 0.309017 0
    outer loop
      vertex -7.57295 18.2366 -24
      vertex -7 20 -30
      vertex -7.57295 18.2366 -30
    endloop
  endfacet
  facet normal -0.587785 0.809017 0
    outer loop
      vertex -7.57295 18.2366 -24
      vertex -7.57295 18.2366 -30
      vertex -9.07295 17.1468 -24
    endloop
  endfacet
  facet normal -0.587785 0.809017 0
    outer loop
      vertex -9.07295 17.1468 -24
      vertex -7.57295 18.2366 -30
      vertex -9.07295 17.1468 -30
    endloop
  endfacet
  facet normal 0 1 0
    outer loop
      vertex -9.07295 17.1468 -24
      vertex -9.07295 17.1468 -30
      vertex -10.9271 17.1468 -24
    endloop
  endfacet
  facet normal 0 1 -0
    outer loop
      vertex -10.9271 17.1468 -24
      vertex -9.07295 17.1468 -30
      vertex -10.9271 17.1468 -30
    endloop
  endfacet
  facet normal 0.587785 0.809017 -0
    outer loop
      vertex -10.9271 17.1468 -24
      vertex -10.9271 17.1468 -30
      vertex -12.4271 18.2366 -24
    endloop
  endfacet
  facet normal 0.587785 0.809017 -0
    outer loop
      vertex -12.4271 18.2366 -24
      vertex -10.9271 17.1468 -30
      vertex -12.4271 18.2366 -30
    endloop
  endfacet
  facet normal 0.951057 -0.309017 0
    outer loop
      vertex 7.57295 21.7634 -30
      vertex 7.57295 21.7634 -24
      vertex 7 20 -24
    endloop
  endfacet
  facet normal 0.951057 -0.309017 0
    outer loop
      vertex 7 20 -30
      vertex 7.57295 21.7634 -30
      vertex 7 20 -24
    endloop
  endfacet
  facet normal 0.951057 0.309017 0
    outer loop
      vertex 7 20 -24
      vertex 7.57295 18.2366 -24
      vertex 7.57295 18.2366 -30
    endloop
  endfacet
  facet normal 0.951057 0.309017 0
    outer loop
      vertex 7 20 -30
      vertex 7 20 -24
      vertex 7.57295 18.2366 -30
    endloop
  endfacet
  facet normal 0.587785 -0.809017 0
    outer loop
      vertex 9.07295 22.8532 -30
      vertex 9.07295 22.8532 -24
      vertex 7.57295 21.7634 -24
    endloop
  endfacet
  facet normal 0.587785 -0.809017 0
    outer loop
      vertex 7.57295 21.7634 -30
      vertex 9.07295 22.8532 -30
      vertex 7.57295 21.7634 -24
    endloop
  endfacet
  facet normal 0 -1 0
    outer loop
      vertex 10.9271 22.8532 -30
      vertex 10.9271 22.8532 -24
      vertex 9.07295 22.8532 -24
    endloop
  endfacet
  facet normal -0 -1 -0
    outer loop
      vertex 9.07295 22.8532 -30
      vertex 10.9271 22.8532 -30
      vertex 9.07295 22.8532 -24
    endloop
  endfacet
  facet normal -0.587785 -0.809017 -0
    outer loop
      vertex 12.4271 21.7634 -30
      vertex 12.4271 21.7634 -24
      vertex 10.9271 22.8532 -24
    endloop
  endfacet
  facet normal -0.587785 -0.809017 -0
    outer loop
      vertex 10.9271 22.8532 -30
      vertex 12.4271 21.7634 -30
      vertex 10.9271 22.8532 -24
    endloop
  endfacet
  facet normal -0.951057 -0.309017 0
    outer loop
      vertex 13 20 -24
      vertex 12.4271 21.7634 -24
      vertex 13 20 -30
    endloop
  endfacet
  facet normal -0.951057 -0.309017 0
    outer loop
      vertex 13 20 -30
      vertex 12.4271 21.7634 -24
      vertex 12.4271 21.7634 -30
    endloop
  endfacet
  facet normal -0.951057 0.309017 0
    outer loop
      vertex 13 20 -24
      vertex 13 20 -30
      vertex 12.4271 18.2366 -24
    endloop
  endfacet
  facet normal -0.951057 0.309017 0
    outer loop
      vertex 12.4271 18.2366 -24
      vertex 13 20 -30
      vertex 12.4271 18.2366 -30
    endloop
  endfacet
  facet normal -0.587785 0.809017 0
    outer loop
      vertex 12.4271 18.2366 -24
      vertex 12.4271 18.2366 -30
      vertex 10.9271 17.1468 -24
    endloop
  endfacet
  facet normal -0.587785 0.809017 0
    outer loop
      vertex 10.9271 17.1468 -24
      vertex 12.4271 18.2366 -30
      vertex 10.9271 17.1468 -30
    endloop
  endfacet
  facet normal 0 1 0
    outer loop
      vertex 10.9271 17.1468 -24
      vertex 10.9271 17.1468 -30
      vertex 9.07295 17.1468 -24
    endloop
  endfacet
  facet normal 0 1 -0
    outer loop
      vertex 9.07295 17.1468 -24
      vertex 10.9271 17.1468 -30
      vertex 9.07295 17.1468 -30
    endloop
  endfacet
  facet normal 0.587785 0.809017 -0
    outer loop
      vertex 9.07295 17.1468 -24
      vertex 9.07295 17.1468 -30
      vertex 7.57295 18.2366 -24
    endloop
  endfacet
  facet normal 0.587785 0.809017 -0
    outer loop
      vertex 7.57295 18.2366 -24
      vertex 9.07295 17.1468 -30
      vertex 7.57295 18.2366 -30
    endloop
  endfacet
  facet normal 1 0 0
    outer loop
      vertex 26.1162 -24.0427 -30
      vertex 26.1162 -24.0427 -24
      vertex 26.1162 -25.9573 -24
    endloop
  endfacet
  facet normal 1 0 0
    outer loop
      vertex 26.1162 -25.9573 -30
      vertex 26.1162 -24.0427 -30
      vertex 26.1162 -25.9573 -24
    endloop
  endfacet
  facet normal 0.885456 -0.464723 0
    outer loop
      vertex 27.006 -22.3475 -30
      vertex 27.006 -22.3475 -24
      vertex 26.1162 -24.0427 -24
    endloop
  endfacet
  facet normal 0.885456 -0.464723 0
    outer loop
      vertex 26.1162 -24.0427 -30
      vertex 27.006 -22.3475 -30
      vertex 26.1162 -24.0427 -24
    endloop
  endfacet
  facet normal 0.568065 -0.822984 0
    outer loop
      vertex 28.5816 -21.2599 -30
      vertex 28.5816 -21.2599 -24
      vertex 27.006 -22.3475 -24
    endloop
  endfacet
  facet normal 0.568065 -0.822984 0
    outer loop
      vertex 27.006 -22.3475 -30
      vertex 28.5816 -21.2599 -30
      vertex 27.006 -22.3475 -24
    endloop
  endfacet
  facet normal 0.120536 -0.992709 0
    outer loop
      vertex 30.4821 -21.0292 -30
      vertex 30.4821 -21.0292 -24
      vertex 28.5816 -21.2599 -24
    endloop
  endfacet
  facet normal 0.120536 -0.992709 0
    outer loop
      vertex 28.5816 -21.2599 -30
      vertex 30.4821 -21.0292 -30
      vertex 28.5816 -21.2599 -24
    endloop
  endfacet
  facet normal -0.354605 -0.935016 -0
    outer loop
      vertex 32.2723 -21.7081 -30
      vertex 32.2723 -21.7081 -24
      vertex 30.4821 -21.0292 -24
    endloop
  endfacet
  facet normal -0.354605 -0.935016 -0
    outer loop
      vertex 30.4821 -21.0292 -30
      vertex 32.2723 -21.7081 -30
      vertex 30.4821 -21.0292 -24
    endloop
  endfacet
  facet normal -0.748511 -0.663123 0
    outer loop
      vertex 33.5418 -23.1411 -24
      vertex 32.2723 -21.7081 -24
      vertex 33.5418 -23.1411 -30
    endloop
  endfacet
  facet normal -0.748511 -0.663123 0
    outer loop
      vertex 33.5418 -23.1411 -30
      vertex 32.2723 -21.7081 -24
      vertex 32.2723 -21.7081 -30
    endloop
  endfacet
  facet normal -0.970942 -0.239316 0
    outer loop
      vertex 34 -25 -24
      vertex 33.5418 -23.1411 -24
      vertex 34 -25 -30
    endloop
  endfacet
  facet normal -0.970942 -0.239316 0
    outer loop
      vertex 34 -25 -30
      vertex 33.5418 -23.1411 -24
      vertex 33.5418 -23.1411 -30
    endloop
  endfacet
  facet normal -0.970942 0.239316 0
    outer loop
      vertex 34 -25 -24
      vertex 34 -25 -30
      vertex 33.5418 -26.8589 -24
    endloop
  endfacet
  facet normal -0.970942 0.239316 0
    outer loop
      vertex 33.5418 -26.8589 -24
      vertex 34 -25 -30
      vertex 33.5418 -26.8589 -30
    endloop
  endfacet
  facet normal -0.748511 0.663123 0
    outer loop
      vertex 33.5418 -26.8589 -24
      vertex 33.5418 -26.8589 -30
      vertex 32.2723 -28.2919 -24
    endloop
  endfacet
  facet normal -0.748511 0.663123 0
    outer loop
      vertex 32.2723 -28.2919 -24
      vertex 33.5418 -26.8589 -30
      vertex 32.2723 -28.2919 -30
    endloop
  endfacet
  facet normal -0.354605 0.935016 0
    outer loop
      vertex 32.2723 -28.2919 -24
      vertex 32.2723 -28.2919 -30
      vertex 30.4821 -28.9708 -24
    endloop
  endfacet
  facet normal -0.354605 0.935016 0
    outer loop
      vertex 30.4821 -28.9708 -24
      vertex 32.2723 -28.2919 -30
      vertex 30.4821 -28.9708 -30
    endloop
  endfacet
  facet normal 0.120536 0.992709 -0
    outer loop
      vertex 30.4821 -28.9708 -24
      vertex 30.4821 -28.9708 -30
      vertex 28.5816 -28.7401 -24
    endloop
  endfacet
  facet normal 0.120536 0.992709 -0
    outer loop
      vertex 28.5816 -28.7401 -24
      vertex 30.4821 -28.9708 -30
      vertex 28.5816 -28.7401 -30
    endloop
  endfacet
  facet normal 0.568065 0.822984 -0
    outer loop
      vertex 28.5816 -28.7401 -24
      vertex 28.5816 -28.7401 -30
      vertex 27.006 -27.6525 -24
    endloop
  endfacet
  facet normal 0.568065 0.822984 -0
    outer loop
      vertex 27.006 -27.6525 -24
      vertex 28.5816 -28.7401 -30
      vertex 27.006 -27.6525 -30
    endloop
  endfacet
  facet normal 0.885456 0.464723 0
    outer loop
      vertex 26.1162 -25.9573 -24
      vertex 27.006 -27.6525 -24
      vertex 27.006 -27.6525 -30
    endloop
  endfacet
  facet normal 0.885456 0.464723 0
    outer loop
      vertex 26.1162 -25.9573 -30
      vertex 26.1162 -25.9573 -24
      vertex 27.006 -27.6525 -30
    endloop
  endfacet
  facet normal 0.885456 -0.464723 0
    outer loop
      vertex 47.006 22.6525 -30
      vertex 47.006 22.6525 -24
      vertex 46.1162 20.9573 -24
    endloop
  endfacet
  facet normal 0.885456 -0.464723 0
    outer loop
      vertex 46.1162 20.9573 -30
      vertex 47.006 22.6525 -30
      vertex 46.1162 20.9573 -24
    endloop
  endfacet
  facet normal 1 0 0
    outer loop
      vertex 46.1162 20.9573 -30
      vertex 46.1162 20.9573 -24
      vertex 46.1162 19.0427 -24
    endloop
  endfacet
  facet normal 1 0 0
    outer loop
      vertex 46.1162 19.0427 -30
      vertex 46.1162 20.9573 -30
      vertex 46.1162 19.0427 -24
    endloop
  endfacet
  facet normal 0.568065 -0.822984 0
    outer loop
      vertex 48.5816 23.7401 -30
      vertex 48.5816 23.7401 -24
      vertex 47.006 22.6525 -24
    endloop
  endfacet
  facet normal 0.568065 -0.822984 0
    outer loop
      vertex 47.006 22.6525 -30
      vertex 48.5816 23.7401 -30
      vertex 47.006 22.6525 -24
    endloop
  endfacet
  facet normal 0.120536 -0.992709 0
    outer loop
      vertex 50.4821 23.9708 -30
      vertex 50.4821 23.9708 -24
      vertex 48.5816 23.7401 -24
    endloop
  endfacet
  facet normal 0.120536 -0.992709 0
    outer loop
      vertex 48.5816 23.7401 -30
      vertex 50.4821 23.9708 -30
      vertex 48.5816 23.7401 -24
    endloop
  endfacet
  facet normal -0.354605 -0.935016 -0
    outer loop
      vertex 52.2723 23.2919 -30
      vertex 52.2723 23.2919 -24
      vertex 50.4821 23.9708 -24
    endloop
  endfacet
  facet normal -0.354605 -0.935016 -0
    outer loop
      vertex 50.4821 23.9708 -30
      vertex 52.2723 23.2919 -30
      vertex 50.4821 23.9708 -24
    endloop
  endfacet
  facet normal -0.748511 -0.663123 0
    outer loop
      vertex 53.5418 21.8589 -24
      vertex 52.2723 23.2919 -24
      vertex 53.5418 21.8589 -30
    endloop
  endfacet
  facet normal -0.748511 -0.663123 0
    outer loop
      vertex 53.5418 21.8589 -30
      vertex 52.2723 23.2919 -24
      vertex 52.2723 23.2919 -30
    endloop
  endfacet
  facet normal -0.970942 -0.239316 0
    outer loop
      vertex 54 20 -24
      vertex 53.5418 21.8589 -24
      vertex 54 20 -30
    endloop
  endfacet
  facet normal -0.970942 -0.239316 0
    outer loop
      vertex 54 20 -30
      vertex 53.5418 21.8589 -24
      vertex 53.5418 21.8589 -30
    endloop
  endfacet
  facet normal -0.970942 0.239316 0
    outer loop
      vertex 54 20 -24
      vertex 54 20 -30
      vertex 53.5418 18.1411 -24
    endloop
  endfacet
  facet normal -0.970942 0.239316 0
    outer loop
      vertex 53.5418 18.1411 -24
      vertex 54 20 -30
      vertex 53.5418 18.1411 -30
    endloop
  endfacet
  facet normal -0.748511 0.663123 0
    outer loop
      vertex 53.5418 18.1411 -24
      vertex 53.5418 18.1411 -30
      vertex 52.2723 16.7081 -24
    endloop
  endfacet
  facet normal -0.748511 0.663123 0
    outer loop
      vertex 52.2723 16.7081 -24
      vertex 53.5418 18.1411 -30
      vertex 52.2723 16.7081 -30
    endloop
  endfacet
  facet normal -0.354605 0.935016 0
    outer loop
      vertex 52.2723 16.7081 -24
      vertex 52.2723 16.7081 -30
      vertex 50.4821 16.0292 -24
    endloop
  endfacet
  facet normal -0.354605 0.935016 0
    outer loop
      vertex 50.4821 16.0292 -24
      vertex 52.2723 16.7081 -30
      vertex 50.4821 16.0292 -30
    endloop
  endfacet
  facet normal 0.120536 0.992709 -0
    outer loop
      vertex 50.4821 16.0292 -24
      vertex 50.4821 16.0292 -30
      vertex 48.5816 16.2599 -24
    endloop
  endfacet
  facet normal 0.120536 0.992709 -0
    outer loop
      vertex 48.5816 16.2599 -24
      vertex 50.4821 16.0292 -30
      vertex 48.5816 16.2599 -30
    endloop
  endfacet
  facet normal 0.568065 0.822984 -0
    outer loop
      vertex 48.5816 16.2599 -24
      vertex 48.5816 16.2599 -30
      vertex 47.006 17.3475 -24
    endloop
  endfacet
  facet normal 0.568065 0.822984 -0
    outer loop
      vertex 47.006 17.3475 -24
      vertex 48.5816 16.2599 -30
      vertex 47.006 17.3475 -30
    endloop
  endfacet
  facet normal 0.885456 0.464723 0
    outer loop
      vertex 46.1162 19.0427 -24
      vertex 47.006 17.3475 -24
      vertex 47.006 17.3475 -30
    endloop
  endfacet
  facet normal 0.885456 0.464723 0
    outer loop
      vertex 46.1162 19.0427 -30
      vertex 46.1162 19.0427 -24
      vertex 47.006 17.3475 -30
    endloop
  endfacet
  facet normal 1 0 0
    outer loop
      vertex -72.5 50 -24
      vertex -72.5 50 30
      vertex -72.5 -50 30
    endloop
  endfacet
  facet normal 1 0 0
    outer loop
      vertex -72.5 -50 -24
      vertex -72.5 50 -24
      vertex -72.5 -50 30
    endloop
  endfacet
  facet normal 0 1 0
    outer loop
      vertex -72.5 -50 -24
      vertex -72.5 -50 30
      vertex -63 -50 -24
    endloop
  endfacet
  facet normal 0 1 0
    outer loop
      vertex -63 -50 -24
      vertex -72.5 -50 30
      vertex -63 -50 30
    endloop
  endfacet
  facet normal 1 0 -0
    outer loop
      vertex -63 -60 30
      vertex -63 -60 -24
      vertex -63 -50 -24
    endloop
  endfacet
  facet normal 1 0 0
    outer loop
      vertex -63 -50 30
      vertex -63 -60 30
      vertex -63 -50 -24
    endloop
  endfacet
  facet normal 0 1 0
    outer loop
      vertex 63 -60 30
      vertex 63 -60 -24
      vertex -63 -60 30
    endloop
  endfacet
  facet normal 0 1 -0
    outer loop
      vertex -63 -60 30
      vertex 63 -60 -24
      vertex -63 -60 -24
    endloop
  endfacet
  facet normal -1 -0 -0
    outer loop
      vertex 63 -60 -24
      vertex 63 -60 30
      vertex 63 -50 -24
    endloop
  endfacet
  facet normal -1 0 0
    outer loop
      vertex 63 -50 -24
      vertex 63 -60 30
      vertex 63 -50 30
    endloop
  endfacet
  facet normal 0 1 0
    outer loop
      vertex 63 -50 -24
      vertex 63 -50 30
      vertex 72.5 -50 -24
    endloop
  endfacet
  facet normal 0 1 0
    outer loop
      vertex 72.5 -50 -24
      vertex 63 -50 30
      vertex 72.5 -50 30
    endloop
  endfacet
  facet normal -1 0 0
    outer loop
      vertex 72.5 50 30
      vertex 72.5 50 -24
      vertex 72.5 -50 30
    endloop
  endfacet
  facet normal -1 0 0
    outer loop
      vertex 72.5 -50 30
      vertex 72.5 50 -24
      vertex 72.5 -50 -24
    endloop
  endfacet
  facet normal 0 -1 0
    outer loop
      vertex 63 50 30
      vertex 63 50 -24
      vertex 72.5 50 -24
    endloop
  endfacet
  facet normal 0 -1 0
    outer loop
      vertex 72.5 50 30
      vertex 63 50 30
      vertex 72.5 50 -24
    endloop
  endfacet
  facet normal -1 -0 -0
    outer loop
      vertex 63 50 -24
      vertex 63 50 30
      vertex 63 60 -24
    endloop
  endfacet
  facet normal -1 0 0
    outer loop
      vertex 63 60 -24
      vertex 63 50 30
      vertex 63 60 30
    endloop
  endfacet
  facet normal 0 -1 0
    outer loop
      vertex 63 60 -24
      vertex 63 60 30
      vertex -63 60 30
    endloop
  endfacet
  facet normal -0 -1 -0
    outer loop
      vertex -63 60 -24
      vertex 63 60 -24
      vertex -63 60 30
    endloop
  endfacet
  facet normal 1 0 -0
    outer loop
      vertex -63 50 30
      vertex -63 50 -24
      vertex -63 60 -24
    endloop
  endfacet
  facet normal 1 0 0
    outer loop
      vertex -63 60 30
      vertex -63 50 30
      vertex -63 60 -24
    endloop
  endfacet
  facet normal 0 -1 0
    outer loop
      vertex -72.5 50 30
      vertex -72.5 50 -24
      vertex -63 50 -24
    endloop
  endfacet
  facet normal 0 -1 0
    outer loop
      vertex -63 50 30
      vertex -72.5 50 30
      vertex -63 50 -24
    endloop
  endfacet
  facet normal 1 0 0
    outer loop
      vertex -71.3582 -55.0139 23
      vertex -71.3582 -55.0139 30
      vertex -71.3582 -56.9861 30
    endloop
  endfacet
  facet normal 1 0 0
    outer loop
      vertex -71.3582 -56.9861 23
      vertex -71.3582 -55.0139 23
      vertex -71.3582 -56.9861 30
    endloop
  endfacet
  facet normal 0.841254 0.54064 0
    outer loop
      vertex -71.3582 -56.9861 30
      vertex -70.292 -58.6451 30
      vertex -70.292 -58.6451 23
    endloop
  endfacet
  facet normal 0.841254 0.54064 0
    outer loop
      vertex -71.3582 -56.9861 23
      vertex -71.3582 -56.9861 30
      vertex -70.292 -58.6451 23
    endloop
  endfacet
  facet normal 0.415415 0.909632 -0
    outer loop
      vertex -68.4981 -59.4644 30
      vertex -68.4981 -59.4644 23
      vertex -70.292 -58.6451 30
    endloop
  endfacet
  facet normal 0.415415 0.909632 -0
    outer loop
      vertex -70.292 -58.6451 30
      vertex -68.4981 -59.4644 23
      vertex -70.292 -58.6451 23
    endloop
  endfacet
  facet normal -0.142315 0.989821 0
    outer loop
      vertex -66.546 -59.1837 30
      vertex -66.546 -59.1837 23
      vertex -68.4981 -59.4644 30
    endloop
  endfacet
  facet normal -0.142315 0.989821 0
    outer loop
      vertex -68.4981 -59.4644 30
      vertex -66.546 -59.1837 23
      vertex -68.4981 -59.4644 23
    endloop
  endfacet
  facet normal -0.654861 0.755749 0
    outer loop
      vertex -65.0556 -57.8922 30
      vertex -65.0556 -57.8922 23
      vertex -66.546 -59.1837 30
    endloop
  endfacet
  facet normal -0.654861 0.755749 0
    outer loop
      vertex -66.546 -59.1837 30
      vertex -65.0556 -57.8922 23
      vertex -66.546 -59.1837 23
    endloop
  endfacet
  facet normal -0.959493 0.281733 0
    outer loop
      vertex -64.5 -56 30
      vertex -64.5 -56 23
      vertex -65.0556 -57.8922 30
    endloop
  endfacet
  facet normal -0.959493 0.281733 0
    outer loop
      vertex -65.0556 -57.8922 30
      vertex -64.5 -56 23
      vertex -65.0556 -57.8922 23
    endloop
  endfacet
  facet normal -0.959493 -0.281733 0
    outer loop
      vertex -64.5 -56 30
      vertex -65.0556 -54.1078 30
      vertex -64.5 -56 23
    endloop
  endfacet
  facet normal -0.959493 -0.281733 0
    outer loop
      vertex -64.5 -56 23
      vertex -65.0556 -54.1078 30
      vertex -65.0556 -54.1078 23
    endloop
  endfacet
  facet normal -0.654861 -0.755749 -0
    outer loop
      vertex -65.0556 -54.1078 23
      vertex -65.0556 -54.1078 30
      vertex -66.546 -52.8163 30
    endloop
  endfacet
  facet normal -0.654861 -0.755749 -0
    outer loop
      vertex -66.546 -52.8163 23
      vertex -65.0556 -54.1078 23
      vertex -66.546 -52.8163 30
    endloop
  endfacet
  facet normal -0.142315 -0.989821 -0
    outer loop
      vertex -66.546 -52.8163 23
      vertex -66.546 -52.8163 30
      vertex -68.4981 -52.5356 30
    endloop
  endfacet
  facet normal -0.142315 -0.989821 -0
    outer loop
      vertex -68.4981 -52.5356 23
      vertex -66.546 -52.8163 23
      vertex -68.4981 -52.5356 30
    endloop
  endfacet
  facet normal 0.415415 -0.909632 0
    outer loop
      vertex -68.4981 -52.5356 23
      vertex -68.4981 -52.5356 30
      vertex -70.292 -53.3549 30
    endloop
  endfacet
  facet normal 0.415415 -0.909632 0
    outer loop
      vertex -70.292 -53.3549 23
      vertex -68.4981 -52.5356 23
      vertex -70.292 -53.3549 30
    endloop
  endfacet
  facet normal 0.841254 -0.54064 0
    outer loop
      vertex -70.292 -53.3549 23
      vertex -70.292 -53.3549 30
      vertex -71.3582 -55.0139 30
    endloop
  endfacet
  facet normal 0.841254 -0.54064 0
    outer loop
      vertex -71.3582 -55.0139 23
      vertex -70.292 -53.3549 23
      vertex -71.3582 -55.0139 30
    endloop
  endfacet
  facet normal 0.841254 0.54064 0
    outer loop
      vertex -71.3582 55.0139 30
      vertex -70.292 53.3549 30
      vertex -70.292 53.3549 23
    endloop
  endfacet
  facet normal 0.841254 0.54064 0
    outer loop
      vertex -71.3582 55.0139 23
      vertex -71.3582 55.0139 30
      vertex -70.292 53.3549 23
    endloop
  endfacet
  facet normal 1 0 0
    outer loop
      vertex -71.3582 56.9861 23
      vertex -71.3582 56.9861 30
      vertex -71.3582 55.0139 30
    endloop
  endfacet
  facet normal 1 0 0
    outer loop
      vertex -71.3582 55.0139 23
      vertex -71.3582 56.9861 23
      vertex -71.3582 55.0139 30
    endloop
  endfacet
  facet normal 0.415415 0.909632 -0
    outer loop
      vertex -68.4981 52.5356 30
      vertex -68.4981 52.5356 23
      vertex -70.292 53.3549 30
    endloop
  endfacet
  facet normal 0.415415 0.909632 -0
    outer loop
      vertex -70.292 53.3549 30
      vertex -68.4981 52.5356 23
      vertex -70.292 53.3549 23
    endloop
  endfacet
  facet normal -0.142315 0.989821 0
    outer loop
      vertex -66.546 52.8163 30
      vertex -66.546 52.8163 23
      vertex -68.4981 52.5356 30
    endloop
  endfacet
  facet normal -0.142315 0.989821 0
    outer loop
      vertex -68.4981 52.5356 30
      vertex -66.546 52.8163 23
      vertex -68.4981 52.5356 23
    endloop
  endfacet
  facet normal -0.654861 0.755749 0
    outer loop
      vertex -65.0556 54.1078 30
      vertex -65.0556 54.1078 23
      vertex -66.546 52.8163 30
    endloop
  endfacet
  facet normal -0.654861 0.755749 0
    outer loop
      vertex -66.546 52.8163 30
      vertex -65.0556 54.1078 23
      vertex -66.546 52.8163 23
    endloop
  endfacet
  facet normal -0.959493 0.281733 0
    outer loop
      vertex -64.5 56 30
      vertex -64.5 56 23
      vertex -65.0556 54.1078 30
    endloop
  endfacet
  facet normal -0.959493 0.281733 0
    outer loop
      vertex -65.0556 54.1078 30
      vertex -64.5 56 23
      vertex -65.0556 54.1078 23
    endloop
  endfacet
  facet normal -0.959493 -0.281733 0
    outer loop
      vertex -64.5 56 30
      vertex -65.0556 57.8922 30
      vertex -64.5 56 23
    endloop
  endfacet
  facet normal -0.959493 -0.281733 0
    outer loop
      vertex -64.5 56 23
      vertex -65.0556 57.8922 30
      vertex -65.0556 57.8922 23
    endloop
  endfacet
  facet normal -0.654861 -0.755749 -0
    outer loop
      vertex -65.0556 57.8922 23
      vertex -65.0556 57.8922 30
      vertex -66.546 59.1837 30
    endloop
  endfacet
  facet normal -0.654861 -0.755749 -0
    outer loop
      vertex -66.546 59.1837 23
      vertex -65.0556 57.8922 23
      vertex -66.546 59.1837 30
    endloop
  endfacet
  facet normal -0.142315 -0.989821 -0
    outer loop
      vertex -66.546 59.1837 23
      vertex -66.546 59.1837 30
      vertex -68.4981 59.4644 30
    endloop
  endfacet
  facet normal -0.142315 -0.989821 -0
    outer loop
      vertex -68.4981 59.4644 23
      vertex -66.546 59.1837 23
      vertex -68.4981 59.4644 30
    endloop
  endfacet
  facet normal 0.415415 -0.909632 0
    outer loop
      vertex -68.4981 59.4644 23
      vertex -68.4981 59.4644 30
      vertex -70.292 58.6451 30
    endloop
  endfacet
  facet normal 0.415415 -0.909632 0
    outer loop
      vertex -70.292 58.6451 23
      vertex -68.4981 59.4644 23
      vertex -70.292 58.6451 30
    endloop
  endfacet
  facet normal 0.841254 -0.54064 0
    outer loop
      vertex -70.292 58.6451 23
      vertex -70.292 58.6451 30
      vertex -71.3582 56.9861 30
    endloop
  endfacet
  facet normal 0.841254 -0.54064 0
    outer loop
      vertex -71.3582 56.9861 23
      vertex -70.292 58.6451 23
      vertex -71.3582 56.9861 30
    endloop
  endfacet
  facet normal 1 0 0
    outer loop
      vertex 65.6418 -55.0139 23
      vertex 65.6418 -55.0139 30
      vertex 65.6418 -56.9861 30
    endloop
  endfacet
  facet normal 1 0 0
    outer loop
      vertex 65.6418 -56.9861 23
      vertex 65.6418 -55.0139 23
      vertex 65.6418 -56.9861 30
    endloop
  endfacet
  facet normal 0.841254 0.54064 0
    outer loop
      vertex 65.6418 -56.9861 30
      vertex 66.708 -58.6451 30
      vertex 66.708 -58.6451 23
    endloop
  endfacet
  facet normal 0.841254 0.54064 0
    outer loop
      vertex 65.6418 -56.9861 23
      vertex 65.6418 -56.9861 30
      vertex 66.708 -58.6451 23
    endloop
  endfacet
  facet normal 0.415415 0.909632 -0
    outer loop
      vertex 68.5019 -59.4644 30
      vertex 68.5019 -59.4644 23
      vertex 66.708 -58.6451 30
    endloop
  endfacet
  facet normal 0.415415 0.909632 -0
    outer loop
      vertex 66.708 -58.6451 30
      vertex 68.5019 -59.4644 23
      vertex 66.708 -58.6451 23
    endloop
  endfacet
  facet normal -0.142315 0.989821 0
    outer loop
      vertex 70.454 -59.1837 30
      vertex 70.454 -59.1837 23
      vertex 68.5019 -59.4644 30
    endloop
  endfacet
  facet normal -0.142315 0.989821 0
    outer loop
      vertex 68.5019 -59.4644 30
      vertex 70.454 -59.1837 23
      vertex 68.5019 -59.4644 23
    endloop
  endfacet
  facet normal -0.654861 0.755749 0
    outer loop
      vertex 71.9444 -57.8922 30
      vertex 71.9444 -57.8922 23
      vertex 70.454 -59.1837 30
    endloop
  endfacet
  facet normal -0.654861 0.755749 0
    outer loop
      vertex 70.454 -59.1837 30
      vertex 71.9444 -57.8922 23
      vertex 70.454 -59.1837 23
    endloop
  endfacet
  facet normal -0.959493 0.281733 0
    outer loop
      vertex 72.5 -56 30
      vertex 72.5 -56 23
      vertex 71.9444 -57.8922 30
    endloop
  endfacet
  facet normal -0.959493 0.281733 0
    outer loop
      vertex 71.9444 -57.8922 30
      vertex 72.5 -56 23
      vertex 71.9444 -57.8922 23
    endloop
  endfacet
  facet normal -0.959493 -0.281733 0
    outer loop
      vertex 72.5 -56 30
      vertex 71.9444 -54.1078 30
      vertex 72.5 -56 23
    endloop
  endfacet
  facet normal -0.959493 -0.281733 0
    outer loop
      vertex 72.5 -56 23
      vertex 71.9444 -54.1078 30
      vertex 71.9444 -54.1078 23
    endloop
  endfacet
  facet normal -0.654861 -0.755749 -0
    outer loop
      vertex 71.9444 -54.1078 23
      vertex 71.9444 -54.1078 30
      vertex 70.454 -52.8163 30
    endloop
  endfacet
  facet normal -0.654861 -0.755749 -0
    outer loop
      vertex 70.454 -52.8163 23
      vertex 71.9444 -54.1078 23
      vertex 70.454 -52.8163 30
    endloop
  endfacet
  facet normal -0.142315 -0.989821 -0
    outer loop
      vertex 70.454 -52.8163 23
      vertex 70.454 -52.8163 30
      vertex 68.5019 -52.5356 30
    endloop
  endfacet
  facet normal -0.142315 -0.989821 -0
    outer loop
      vertex 68.5019 -52.5356 23
      vertex 70.454 -52.8163 23
      vertex 68.5019 -52.5356 30
    endloop
  endfacet
  facet normal 0.415415 -0.909632 0
    outer loop
      vertex 68.5019 -52.5356 23
      vertex 68.5019 -52.5356 30
      vertex 66.708 -53.3549 30
    endloop
  endfacet
  facet normal 0.415415 -0.909632 0
    outer loop
      vertex 66.708 -53.3549 23
      vertex 68.5019 -52.5356 23
      vertex 66.708 -53.3549 30
    endloop
  endfacet
  facet normal 0.841254 -0.54064 0
    outer loop
      vertex 66.708 -53.3549 23
      vertex 66.708 -53.3549 30
      vertex 65.6418 -55.0139 30
    endloop
  endfacet
  facet normal 0.841254 -0.54064 0
    outer loop
      vertex 65.6418 -55.0139 23
      vertex 66.708 -53.3549 23
      vertex 65.6418 -55.0139 30
    endloop
  endfacet
  facet normal 0.841254 0.54064 0
    outer loop
      vertex 65.6418 55.0139 30
      vertex 66.708 53.3549 30
      vertex 66.708 53.3549 23
    endloop
  endfacet
  facet normal 0.841254 0.54064 0
    outer loop
      vertex 65.6418 55.0139 23
      vertex 65.6418 55.0139 30
      vertex 66.708 53.3549 23
    endloop
  endfacet
  facet normal 1 0 0
    outer loop
      vertex 65.6418 56.9861 23
      vertex 65.6418 56.9861 30
      vertex 65.6418 55.0139 30
    endloop
  endfacet
  facet normal 1 0 0
    outer loop
      vertex 65.6418 55.0139 23
      vertex 65.6418 56.9861 23
      vertex 65.6418 55.0139 30
    endloop
  endfacet
  facet normal 0.415415 0.909632 -0
    outer loop
      vertex 68.5019 52.5356 30
      vertex 68.5019 52.5356 23
      vertex 66.708 53.3549 30
    endloop
  endfacet
  facet normal 0.415415 0.909632 -0
    outer loop
      vertex 66.708 53.3549 30
      vertex 68.5019 52.5356 23
      vertex 66.708 53.3549 23
    endloop
  endfacet
  facet normal -0.142315 0.989821 0
    outer loop
      vertex 70.454 52.8163 30
      vertex 70.454 52.8163 23
      vertex 68.5019 52.5356 30
    endloop
  endfacet
  facet normal -0.142315 0.989821 0
    outer loop
      vertex 68.5019 52.5356 30
      vertex 70.454 52.8163 23
      vertex 68.5019 52.5356 23
    endloop
  endfacet
  facet normal -0.654861 0.755749 0
    outer loop
      vertex 71.9444 54.1078 30
      vertex 71.9444 54.1078 23
      vertex 70.454 52.8163 30
    endloop
  endfacet
  facet normal -0.654861 0.755749 0
    outer loop
      vertex 70.454 52.8163 30
      vertex 71.9444 54.1078 23
      vertex 70.454 52.8163 23
    endloop
  endfacet
  facet normal -0.959493 0.281733 0
    outer loop
      vertex 72.5 56 30
      vertex 72.5 56 23
      vertex 71.9444 54.1078 30
    endloop
  endfacet
  facet normal -0.959493 0.281733 0
    outer loop
      vertex 71.9444 54.1078 30
      vertex 72.5 56 23
      vertex 71.9444 54.1078 23
    endloop
  endfacet
  facet normal -0.959493 -0.281733 0
    outer loop
      vertex 72.5 56 30
      vertex 71.9444 57.8922 30
      vertex 72.5 56 23
    endloop
  endfacet
  facet normal -0.959493 -0.281733 0
    outer loop
      vertex 72.5 56 23
      vertex 71.9444 57.8922 30
      vertex 71.9444 57.8922 23
    endloop
  endfacet
  facet normal -0.654861 -0.755749 -0
    outer loop
      vertex 71.9444 57.8922 23
      vertex 71.9444 57.8922 30
      vertex 70.454 59.1837 30
    endloop
  endfacet
  facet normal -0.654861 -0.755749 -0
    outer loop
      vertex 70.454 59.1837 23
      vertex 71.9444 57.8922 23
      vertex 70.454 59.1837 30
    endloop
  endfacet
  facet normal -0.142315 -0.989821 -0
    outer loop
      vertex 70.454 59.1837 23
      vertex 70.454 59.1837 30
      vertex 68.5019 59.4644 30
    endloop
  endfacet
  facet normal -0.142315 -0.989821 -0
    outer loop
      vertex 68.5019 59.4644 23
      vertex 70.454 59.1837 23
      vertex 68.5019 59.4644 30
    endloop
  endfacet
  facet normal 0.415415 -0.909632 0
    outer loop
      vertex 68.5019 59.4644 23
      vertex 68.5019 59.4644 30
      vertex 66.708 58.6451 30
    endloop
  endfacet
  facet normal 0.415415 -0.909632 0
    outer loop
      vertex 66.708 58.6451 23
      vertex 68.5019 59.4644 23
      vertex 66.708 58.6451 30
    endloop
  endfacet
  facet normal 0.841254 -0.54064 0
    outer loop
      vertex 66.708 58.6451 23
      vertex 66.708 58.6451 30
      vertex 65.6418 56.9861 30
    endloop
  endfacet
  facet normal 0.841254 -0.54064 0
    outer loop
      vertex 65.6418 56.9861 23
      vertex 66.708 58.6451 23
      vertex 65.6418 56.9861 30
    endloop
  endfacet
  facet normal 0 -0 1
    outer loop
      vertex -63 -50 -24
      vertex -63 -60 -24
      vertex 63 -60 -24
    endloop
  endfacet
  facet normal 0 -0 1
    outer loop
      vertex -27.7277 -28.2919 -24
      vertex -63 -50 -24
      vertex 63 -50 -24
    endloop
  endfacet
  facet normal 0 0 1
    outer loop
      vertex 63 -50 -24
      vertex -63 -50 -24
      vertex 63 -60 -24
    endloop
  endfacet
  facet normal 0 0 1
    outer loop
      vertex 72.5 50 -24
      vertex 63 -50 -24
      vertex 72.5 -50 -24
    endloop
  endfacet
  facet normal -0 0 1
    outer loop
      vertex -29.5179 -28.9708 -24
      vertex -31.4184 -28.7401 -24
      vertex -63 -50 -24
    endloop
  endfacet
  facet normal 0 0 1
    outer loop
      vertex -72.5 50 -24
      vertex -63 -50 -24
      vertex -63 50 -24
    endloop
  endfacet
  facet normal 0 -0 1
    outer loop
      vertex -63 60 -24
      vertex -63 50 -24
      vertex 63 60 -24
    endloop
  endfacet
  facet normal 0 0 1
    outer loop
      vertex -49.5179 23.9708 -24
      vertex -47.7277 23.2919 -24
      vertex 63 60 -24
    endloop
  endfacet
  facet normal 0 0 1
    outer loop
      vertex -46.4582 18.1411 -24
      vertex -47.7277 16.7081 -24
      vertex -63 -50 -24
    endloop
  endfacet
  facet normal 0 -0 1
    outer loop
      vertex -63 50 -24
      vertex -63 -50 -24
      vertex -53.8838 20.9573 -24
    endloop
  endfacet
  facet normal 0 0 1
    outer loop
      vertex -47.7277 23.2919 -24
      vertex -46.4582 21.8589 -24
      vertex 63 60 -24
    endloop
  endfacet
  facet normal 0 0 1
    outer loop
      vertex -63 50 -24
      vertex -53.8838 20.9573 -24
      vertex -52.994 22.6525 -24
    endloop
  endfacet
  facet normal 0 0 1
    outer loop
      vertex -63 50 -24
      vertex -51.4184 23.7401 -24
      vertex 63 60 -24
    endloop
  endfacet
  facet normal 0 0 1
    outer loop
      vertex -63 50 -24
      vertex -52.994 22.6525 -24
      vertex -51.4184 23.7401 -24
    endloop
  endfacet
  facet normal 0 0 1
    outer loop
      vertex -51.4184 23.7401 -24
      vertex -49.5179 23.9708 -24
      vertex 63 60 -24
    endloop
  endfacet
  facet normal 0 0 1
    outer loop
      vertex -46.4582 21.8589 -24
      vertex -46 20 -24
      vertex 63 60 -24
    endloop
  endfacet
  facet normal 0 -0 1
    outer loop
      vertex -46.4582 18.1411 -24
      vertex -63 -50 -24
      vertex -46 20 -24
    endloop
  endfacet
  facet normal 0 -0 1
    outer loop
      vertex -49.5179 16.0292 -24
      vertex -63 -50 -24
      vertex -47.7277 16.7081 -24
    endloop
  endfacet
  facet normal 0 -0 1
    outer loop
      vertex -51.4184 16.2599 -24
      vertex -63 -50 -24
      vertex -49.5179 16.0292 -24
    endloop
  endfacet
  facet normal 0 -0 1
    outer loop
      vertex -52.994 17.3475 -24
      vertex -63 -50 -24
      vertex -51.4184 16.2599 -24
    endloop
  endfacet
  facet normal 0 -0 1
    outer loop
      vertex -53.8838 19.0427 -24
      vertex -63 -50 -24
      vertex -52.994 17.3475 -24
    endloop
  endfacet
  facet normal 0 0 1
    outer loop
      vertex -53.8838 20.9573 -24
      vertex -63 -50 -24
      vertex -53.8838 19.0427 -24
    endloop
  endfacet
  facet normal 0 0 1
    outer loop
      vertex -10.9271 22.8532 -24
      vertex -9.07295 22.8532 -24
      vertex 63 60 -24
    endloop
  endfacet
  facet normal 0 -0 1
    outer loop
      vertex -46 20 -24
      vertex -63 -50 -24
      vertex -33.8838 -24.0427 -24
    endloop
  endfacet
  facet normal 0 -0 1
    outer loop
      vertex 12.4271 18.2366 -24
      vertex -32.994 -22.3475 -24
      vertex 63 60 -24
    endloop
  endfacet
  facet normal 0 0 1
    outer loop
      vertex -46 20 -24
      vertex -33.8838 -24.0427 -24
      vertex -32.994 -22.3475 -24
    endloop
  endfacet
  facet normal 0 0 1
    outer loop
      vertex -32.994 -22.3475 -24
      vertex -31.4184 -21.2599 -24
      vertex 63 60 -24
    endloop
  endfacet
  facet normal 0 0 1
    outer loop
      vertex 63 60 -24
      vertex -29.5179 -21.0292 -24
      vertex 63 50 -24
    endloop
  endfacet
  facet normal 0 0 1
    outer loop
      vertex -31.4184 -21.2599 -24
      vertex -29.5179 -21.0292 -24
      vertex 63 60 -24
    endloop
  endfacet
  facet normal 0 0 1
    outer loop
      vertex -29.5179 -21.0292 -24
      vertex -27.7277 -21.7081 -24
      vertex 63 50 -24
    endloop
  endfacet
  facet normal -0 -0 1
    outer loop
      vertex 30.4821 -28.9708 -24
      vertex -26.4582 -23.1411 -24
      vertex 63 -50 -24
    endloop
  endfacet
  facet normal 0 0 1
    outer loop
      vertex -26.4582 -23.1411 -24
      vertex -26 -25 -24
      vertex 63 -50 -24
    endloop
  endfacet
  facet normal -0 0 1
    outer loop
      vertex -32.994 -27.6525 -24
      vertex -33.8838 -25.9573 -24
      vertex -63 -50 -24
    endloop
  endfacet
  facet normal 0 -0 1
    outer loop
      vertex -26 -25 -24
      vertex -26.4582 -26.8589 -24
      vertex 63 -50 -24
    endloop
  endfacet
  facet normal 0 -0 1
    outer loop
      vertex -26.4582 -26.8589 -24
      vertex -27.7277 -28.2919 -24
      vertex 63 -50 -24
    endloop
  endfacet
  facet normal 0 -0 1
    outer loop
      vertex -29.5179 -28.9708 -24
      vertex -63 -50 -24
      vertex -27.7277 -28.2919 -24
    endloop
  endfacet
  facet normal -0 0 1
    outer loop
      vertex 50.4821 16.0292 -24
      vertex 48.5816 16.2599 -24
      vertex 27.006 -22.3475 -24
    endloop
  endfacet
  facet normal -0 0 1
    outer loop
      vertex -31.4184 -28.7401 -24
      vertex -32.994 -27.6525 -24
      vertex -63 -50 -24
    endloop
  endfacet
  facet normal 0 0 1
    outer loop
      vertex -7.57295 18.2366 -24
      vertex -9.07295 17.1468 -24
      vertex -32.994 -22.3475 -24
    endloop
  endfacet
  facet normal 0 0 1
    outer loop
      vertex -46 20 -24
      vertex -32.994 -22.3475 -24
      vertex -13 20 -24
    endloop
  endfacet
  facet normal 0 0 1
    outer loop
      vertex -9.07295 22.8532 -24
      vertex -7.57295 21.7634 -24
      vertex 63 60 -24
    endloop
  endfacet
  facet normal 0 0 1
    outer loop
      vertex -46 20 -24
      vertex -13 20 -24
      vertex -12.4271 21.7634 -24
    endloop
  endfacet
  facet normal 0 0 1
    outer loop
      vertex -46 20 -24
      vertex -10.9271 22.8532 -24
      vertex 63 60 -24
    endloop
  endfacet
  facet normal 0 0 1
    outer loop
      vertex -46 20 -24
      vertex -12.4271 21.7634 -24
      vertex -10.9271 22.8532 -24
    endloop
  endfacet
  facet normal 0 0 1
    outer loop
      vertex -7.57295 21.7634 -24
      vertex -7 20 -24
      vertex 63 60 -24
    endloop
  endfacet
  facet normal 0 -0 1
    outer loop
      vertex -7 20 -24
      vertex -7.57295 18.2366 -24
      vertex 63 60 -24
    endloop
  endfacet
  facet normal 0 0 1
    outer loop
      vertex -9.07295 17.1468 -24
      vertex -10.9271 17.1468 -24
      vertex -32.994 -22.3475 -24
    endloop
  endfacet
  facet normal 0 0 1
    outer loop
      vertex 9.07295 22.8532 -24
      vertex 10.9271 22.8532 -24
      vertex 63 60 -24
    endloop
  endfacet
  facet normal 0 -0 1
    outer loop
      vertex -12.4271 18.2366 -24
      vertex -32.994 -22.3475 -24
      vertex -10.9271 17.1468 -24
    endloop
  endfacet
  facet normal 0 -0 1
    outer loop
      vertex -13 20 -24
      vertex -32.994 -22.3475 -24
      vertex -12.4271 18.2366 -24
    endloop
  endfacet
  facet normal 0 0 1
    outer loop
      vertex 10.9271 17.1468 -24
      vertex 9.07295 17.1468 -24
      vertex -32.994 -22.3475 -24
    endloop
  endfacet
  facet normal 0 -0 1
    outer loop
      vertex -7.57295 18.2366 -24
      vertex -32.994 -22.3475 -24
      vertex 7 20 -24
    endloop
  endfacet
  facet normal 0 0 1
    outer loop
      vertex 10.9271 22.8532 -24
      vertex 12.4271 21.7634 -24
      vertex 63 60 -24
    endloop
  endfacet
  facet normal 0 0 1
    outer loop
      vertex -7.57295 18.2366 -24
      vertex 7 20 -24
      vertex 7.57295 21.7634 -24
    endloop
  endfacet
  facet normal 0 0 1
    outer loop
      vertex -7.57295 18.2366 -24
      vertex 9.07295 22.8532 -24
      vertex 63 60 -24
    endloop
  endfacet
  facet normal 0 0 1
    outer loop
      vertex -7.57295 18.2366 -24
      vertex 7.57295 21.7634 -24
      vertex 9.07295 22.8532 -24
    endloop
  endfacet
  facet normal 0 0 1
    outer loop
      vertex 12.4271 21.7634 -24
      vertex 13 20 -24
      vertex 63 60 -24
    endloop
  endfacet
  facet normal 0 -0 1
    outer loop
      vertex 13 20 -24
      vertex 12.4271 18.2366 -24
      vertex 63 60 -24
    endloop
  endfacet
  facet normal 0 -0 1
    outer loop
      vertex 10.9271 17.1468 -24
      vertex -32.994 -22.3475 -24
      vertex 12.4271 18.2366 -24
    endloop
  endfacet
  facet normal -0 0 1
    outer loop
      vertex 9.07295 17.1468 -24
      vertex 7.57295 18.2366 -24
      vertex -32.994 -22.3475 -24
    endloop
  endfacet
  facet normal -0 0 1
    outer loop
      vertex 48.5816 16.2599 -24
      vertex 47.006 17.3475 -24
      vertex 27.006 -22.3475 -24
    endloop
  endfacet
  facet normal 0 -0 1
    outer loop
      vertex 7 20 -24
      vertex -32.994 -22.3475 -24
      vertex 7.57295 18.2366 -24
    endloop
  endfacet
  facet normal 0 0 1
    outer loop
      vertex 48.5816 23.7401 -24
      vertex 50.4821 23.9708 -24
      vertex 72.5 50 -24
    endloop
  endfacet
  facet normal 0 0 1
    outer loop
      vertex 27.006 -22.3475 -24
      vertex -26.4582 -23.1411 -24
      vertex 26.1162 -24.0427 -24
    endloop
  endfacet
  facet normal 0 0 1
    outer loop
      vertex 53.5418 21.8589 -24
      vertex 54 20 -24
      vertex 72.5 50 -24
    endloop
  endfacet
  facet normal 0 0 1
    outer loop
      vertex 46.1162 20.9573 -24
      vertex -26.4582 -23.1411 -24
      vertex 27.006 -22.3475 -24
    endloop
  endfacet
  facet normal 0 -0 1
    outer loop
      vertex 32.2723 -28.2919 -24
      vertex 30.4821 -28.9708 -24
      vertex 63 -50 -24
    endloop
  endfacet
  facet normal 0 -0 1
    outer loop
      vertex 34 -25 -24
      vertex 33.5418 -26.8589 -24
      vertex 63 -50 -24
    endloop
  endfacet
  facet normal 0 0 1
    outer loop
      vertex 53.5418 18.1411 -24
      vertex 28.5816 -21.2599 -24
      vertex 30.4821 -21.0292 -24
    endloop
  endfacet
  facet normal 0 0 1
    outer loop
      vertex 72.5 50 -24
      vertex 32.2723 -21.7081 -24
      vertex 63 -50 -24
    endloop
  endfacet
  facet normal 0 0 1
    outer loop
      vertex 72.5 50 -24
      vertex 30.4821 -21.0292 -24
      vertex 32.2723 -21.7081 -24
    endloop
  endfacet
  facet normal 0 0 1
    outer loop
      vertex 32.2723 -21.7081 -24
      vertex 33.5418 -23.1411 -24
      vertex 63 -50 -24
    endloop
  endfacet
  facet normal 0 -0 1
    outer loop
      vertex 33.5418 -26.8589 -24
      vertex 32.2723 -28.2919 -24
      vertex 63 -50 -24
    endloop
  endfacet
  facet normal -0 -0 1
    outer loop
      vertex 28.5816 -28.7401 -24
      vertex -26.4582 -23.1411 -24
      vertex 30.4821 -28.9708 -24
    endloop
  endfacet
  facet normal -0 -0 1
    outer loop
      vertex 27.006 -27.6525 -24
      vertex -26.4582 -23.1411 -24
      vertex 28.5816 -28.7401 -24
    endloop
  endfacet
  facet normal -0 -0 1
    outer loop
      vertex 26.1162 -25.9573 -24
      vertex -26.4582 -23.1411 -24
      vertex 27.006 -27.6525 -24
    endloop
  endfacet
  facet normal -0 0 1
    outer loop
      vertex 26.1162 -24.0427 -24
      vertex -26.4582 -23.1411 -24
      vertex 26.1162 -25.9573 -24
    endloop
  endfacet
  facet normal -0 0 1
    outer loop
      vertex 46.1162 19.0427 -24
      vertex 46.1162 20.9573 -24
      vertex 27.006 -22.3475 -24
    endloop
  endfacet
  facet normal 0 0 1
    outer loop
      vertex 47.006 22.6525 -24
      vertex -26.4582 -23.1411 -24
      vertex 46.1162 20.9573 -24
    endloop
  endfacet
  facet normal 0 0 1
    outer loop
      vertex 72.5 50 -24
      vertex -26.4582 -23.1411 -24
      vertex 47.006 22.6525 -24
    endloop
  endfacet
  facet normal 0 0 1
    outer loop
      vertex 72.5 50 -24
      vertex 47.006 22.6525 -24
      vertex 48.5816 23.7401 -24
    endloop
  endfacet
  facet normal 0 0 1
    outer loop
      vertex 72.5 50 -24
      vertex 50.4821 23.9708 -24
      vertex 52.2723 23.2919 -24
    endloop
  endfacet
  facet normal 0 0 1
    outer loop
      vertex 72.5 50 -24
      vertex 52.2723 23.2919 -24
      vertex 53.5418 21.8589 -24
    endloop
  endfacet
  facet normal 0 0 1
    outer loop
      vertex 52.2723 16.7081 -24
      vertex 50.4821 16.0292 -24
      vertex 27.006 -22.3475 -24
    endloop
  endfacet
  facet normal 0 0 1
    outer loop
      vertex 33.5418 -23.1411 -24
      vertex 34 -25 -24
      vertex 63 -50 -24
    endloop
  endfacet
  facet normal 0 0 1
    outer loop
      vertex 72.5 50 -24
      vertex 53.5418 18.1411 -24
      vertex 30.4821 -21.0292 -24
    endloop
  endfacet
  facet normal 0 -0 1
    outer loop
      vertex 52.2723 16.7081 -24
      vertex 28.5816 -21.2599 -24
      vertex 53.5418 18.1411 -24
    endloop
  endfacet
  facet normal 0 0 1
    outer loop
      vertex 52.2723 16.7081 -24
      vertex 27.006 -22.3475 -24
      vertex 28.5816 -21.2599 -24
    endloop
  endfacet
  facet normal 0 -0 1
    outer loop
      vertex 54 20 -24
      vertex 53.5418 18.1411 -24
      vertex 72.5 50 -24
    endloop
  endfacet
  facet normal -0 0 1
    outer loop
      vertex 47.006 17.3475 -24
      vertex 46.1162 19.0427 -24
      vertex 27.006 -22.3475 -24
    endloop
  endfacet
  facet normal 0 0 1
    outer loop
      vertex -72.5 -50 -24
      vertex -63 -50 -24
      vertex -72.5 50 -24
    endloop
  endfacet
  facet normal -0 0 1
    outer loop
      vertex -33.8838 -25.9573 -24
      vertex -33.8838 -24.0427 -24
      vertex -63 -50 -24
    endloop
  endfacet
  facet normal 0 0 1
    outer loop
      vertex -27.7277 -21.7081 -24
      vertex 72.5 50 -24
      vertex 63 50 -24
    endloop
  endfacet
  facet normal 0 0 1
    outer loop
      vertex -27.7277 -21.7081 -24
      vertex -26.4582 -23.1411 -24
      vertex 72.5 50 -24
    endloop
  endfacet
  facet normal 0 0 1
    outer loop
      vertex -70.292 -58.6451 23
      vertex -68.4981 -59.4644 23
      vertex -66.546 -59.1837 23
    endloop
  endfacet
  facet normal 0 0 1
    outer loop
      vertex -64.5 -56 23
      vertex -70.292 -58.6451 23
      vertex -65.0556 -57.8922 23
    endloop
  endfacet
  facet normal 0 0 1
    outer loop
      vertex -65.0556 -57.8922 23
      vertex -70.292 -58.6451 23
      vertex -66.546 -59.1837 23
    endloop
  endfacet
  facet normal 0 -0 1
    outer loop
      vertex -65.0556 -54.1078 23
      vertex -70.292 -58.6451 23
      vertex -64.5 -56 23
    endloop
  endfacet
  facet normal 0 -0 1
    outer loop
      vertex -66.546 -52.8163 23
      vertex -70.292 -58.6451 23
      vertex -65.0556 -54.1078 23
    endloop
  endfacet
  facet normal 0 -0 1
    outer loop
      vertex -68.4981 -52.5356 23
      vertex -70.292 -58.6451 23
      vertex -66.546 -52.8163 23
    endloop
  endfacet
  facet normal 0 -0 1
    outer loop
      vertex -70.292 -53.3549 23
      vertex -70.292 -58.6451 23
      vertex -68.4981 -52.5356 23
    endloop
  endfacet
  facet normal 0 0 1
    outer loop
      vertex -71.3582 -55.0139 23
      vertex -70.292 -58.6451 23
      vertex -70.292 -53.3549 23
    endloop
  endfacet
  facet normal 0 0 1
    outer loop
      vertex -71.3582 -56.9861 23
      vertex -70.292 -58.6451 23
      vertex -71.3582 -55.0139 23
    endloop
  endfacet
  facet normal 0 0 1
    outer loop
      vertex -70.292 53.3549 23
      vertex -68.4981 52.5356 23
      vertex -66.546 52.8163 23
    endloop
  endfacet
  facet normal 0 0 1
    outer loop
      vertex -64.5 56 23
      vertex -70.292 53.3549 23
      vertex -65.0556 54.1078 23
    endloop
  endfacet
  facet normal 0 0 1
    outer loop
      vertex -65.0556 54.1078 23
      vertex -70.292 53.3549 23
      vertex -66.546 52.8163 23
    endloop
  endfacet
  facet normal 0 -0 1
    outer loop
      vertex -65.0556 57.8922 23
      vertex -70.292 53.3549 23
      vertex -64.5 56 23
    endloop
  endfacet
  facet normal 0 -0 1
    outer loop
      vertex -66.546 59.1837 23
      vertex -70.292 53.3549 23
      vertex -65.0556 57.8922 23
    endloop
  endfacet
  facet normal 0 -0 1
    outer loop
      vertex -68.4981 59.4644 23
      vertex -70.292 53.3549 23
      vertex -66.546 59.1837 23
    endloop
  endfacet
  facet normal 0 -0 1
    outer loop
      vertex -70.292 58.6451 23
      vertex -70.292 53.3549 23
      vertex -68.4981 59.4644 23
    endloop
  endfacet
  facet normal 0 0 1
    outer loop
      vertex -71.3582 56.9861 23
      vertex -70.292 53.3549 23
      vertex -70.292 58.6451 23
    endloop
  endfacet
  facet normal 0 0 1
    outer loop
      vertex -71.3582 55.0139 23
      vertex -70.292 53.3549 23
      vertex -71.3582 56.9861 23
    endloop
  endfacet
  facet normal 0 0 1
    outer loop
      vertex 66.708 -58.6451 23
      vertex 68.5019 -59.4644 23
      vertex 70.454 -59.1837 23
    endloop
  endfacet
  facet normal 0 0 1
    outer loop
      vertex 72.5 -56 23
      vertex 66.708 -58.6451 23
      vertex 71.9444 -57.8922 23
    endloop
  endfacet
  facet normal 0 0 1
    outer loop
      vertex 71.9444 -57.8922 23
      vertex 66.708 -58.6451 23
      vertex 70.454 -59.1837 23
    endloop
  endfacet
  facet normal 0 -0 1
    outer loop
      vertex 71.9444 -54.1078 23
      vertex 66.708 -58.6451 23
      vertex 72.5 -56 23
    endloop
  endfacet
  facet normal 0 -0 1
    outer loop
      vertex 70.454 -52.8163 23
      vertex 66.708 -58.6451 23
      vertex 71.9444 -54.1078 23
    endloop
  endfacet
  facet normal 0 -0 1
    outer loop
      vertex 68.5019 -52.5356 23
      vertex 66.708 -58.6451 23
      vertex 70.454 -52.8163 23
    endloop
  endfacet
  facet normal 0 -0 1
    outer loop
      vertex 66.708 -53.3549 23
      vertex 66.708 -58.6451 23
      vertex 68.5019 -52.5356 23
    endloop
  endfacet
  facet normal 0 0 1
    outer loop
      vertex 65.6418 -55.0139 23
      vertex 66.708 -58.6451 23
      vertex 66.708 -53.3549 23
    endloop
  endfacet
  facet normal 0 0 1
    outer loop
      vertex 65.6418 -56.9861 23
      vertex 66.708 -58.6451 23
      vertex 65.6418 -55.0139 23
    endloop
  endfacet
  facet normal 0 0 1
    outer loop
      vertex 66.708 53.3549 23
      vertex 68.5019 52.5356 23
      vertex 70.454 52.8163 23
    endloop
  endfacet
  facet normal 0 0 1
    outer loop
      vertex 72.5 56 23
      vertex 66.708 53.3549 23
      vertex 71.9444 54.1078 23
    endloop
  endfacet
  facet normal 0 0 1
    outer loop
      vertex 71.9444 54.1078 23
      vertex 66.708 53.3549 23
      vertex 70.454 52.8163 23
    endloop
  endfacet
  facet normal 0 -0 1
    outer loop
      vertex 71.9444 57.8922 23
      vertex 66.708 53.3549 23
      vertex 72.5 56 23
    endloop
  endfacet
  facet normal 0 -0 1
    outer loop
      vertex 70.454 59.1837 23
      vertex 66.708 53.3549 23
      vertex 71.9444 57.8922 23
    endloop
  endfacet
  facet normal 0 -0 1
    outer loop
      vertex 68.5019 59.4644 23
      vertex 66.708 53.3549 23
      vertex 70.454 59.1837 23
    endloop
  endfacet
  facet normal 0 -0 1
    outer loop
      vertex 66.708 58.6451 23
      vertex 66.708 53.3549 23
      vertex 68.5019 59.4644 23
    endloop
  endfacet
  facet normal 0 0 1
    outer loop
      vertex 65.6418 56.9861 23
      vertex 66.708 53.3549 23
      vertex 66.708 58.6451 23
    endloop
  endfacet
  facet normal 0 0 1
    outer loop
      vertex 65.6418 55.0139 23
      vertex 66.708 53.3549 23
      vertex 65.6418 56.9861 23
    endloop
  endfacet
endsolid OpenSCAD_Model
